<svg width="480" height="982" viewBox="0 0 480 982" fill="none" xmlns="http://www.w3.org/2000/svg">
<g clip-path="url(#clip0_24_2)">
<rect width="480" height="982" rx="10" fill="white"/>
<rect x="11" y="-0.372742" width="480" height="982" fill="#F5F5F5"/>
<rect y="-0.372742" width="480" height="982" fill="url(#paint0_linear_24_2)"/>
<path d="M-26 -40.5C63.1667 848.521 480 505.5 480 505.5V981.627H0L-26 -40.5Z" fill="#C06F0A"/>
<g filter="url(#filter0_d_24_2)">
<path d="M216 723.5C825.924 588.744 210.469 -30.8533 -7.00006 467.5C-224.47 965.853 20.9685 934.925 6.42474 982.749H485.988L216 723.5Z" fill="#F99417"/>
</g>
<ellipse cx="239.5" cy="229" rx="139.5" ry="138" fill="#D9D9D9"/>
<path d="M240 121.5C251.581 121.5 262.688 126.399 270.877 135.12C279.066 143.84 283.666 155.667 283.667 168C283.666 180.333 279.066 192.16 270.877 200.88C262.688 209.601 251.581 214.5 240 214.5C228.419 214.5 217.312 209.601 209.123 200.88C200.934 192.16 196.333 180.333 196.333 168C196.333 155.667 200.934 143.84 209.123 135.12C217.312 126.399 228.419 121.5 240 121.5ZM240 237.75C288.251 237.75 327.333 258.559 327.333 284.25V307.5H152.667V284.25C152.667 258.559 191.748 237.75 240 237.75Z" fill="#F5F5F5"/>
<path d="M39.1136 401.729V398.636H55.3608V401.729H49.0668V419H45.4077V401.729H39.1136ZM61.9332 410.051V419H58.3338V398.636H61.8537V406.322H62.0327C62.3906 405.461 62.9441 404.781 63.6932 404.284C64.4489 403.78 65.41 403.528 66.5767 403.528C67.6373 403.528 68.562 403.75 69.3509 404.195C70.1397 404.639 70.7495 405.288 71.1804 406.143C71.6179 406.999 71.8366 408.043 71.8366 409.276V419H68.2372V409.832C68.2372 408.805 67.9721 408.006 67.4418 407.436C66.9181 406.859 66.1823 406.571 65.2344 406.571C64.598 406.571 64.0279 406.71 63.5241 406.989C63.027 407.26 62.6359 407.655 62.3509 408.172C62.0724 408.689 61.9332 409.315 61.9332 410.051ZM79.9006 419.308C78.9328 419.308 78.0611 419.136 77.2855 418.791C76.5166 418.44 75.9067 417.923 75.456 417.24C75.0118 416.557 74.7898 415.715 74.7898 414.714C74.7898 413.853 74.9489 413.14 75.267 412.577C75.5852 412.013 76.0194 411.562 76.5696 411.224C77.1198 410.886 77.7396 410.631 78.429 410.459C79.125 410.28 79.8442 410.151 80.5866 410.071C81.4815 409.978 82.2074 409.895 82.7642 409.822C83.321 409.743 83.7254 409.624 83.9773 409.464C84.2358 409.299 84.3651 409.044 84.3651 408.699V408.639C84.3651 407.89 84.143 407.31 83.6989 406.899C83.2547 406.488 82.6151 406.283 81.7798 406.283C80.8982 406.283 80.1989 406.475 79.6818 406.859C79.1714 407.244 78.8267 407.698 78.6477 408.222L75.2869 407.744C75.5521 406.816 75.9896 406.041 76.5994 405.418C77.2093 404.788 77.955 404.317 78.8366 404.006C79.7183 403.688 80.6927 403.528 81.7599 403.528C82.4957 403.528 83.2282 403.615 83.9574 403.787C84.6866 403.959 85.3527 404.244 85.956 404.642C86.5592 405.033 87.0431 405.567 87.4077 406.243C87.7789 406.919 87.9645 407.764 87.9645 408.778V419H84.5043V416.902H84.3849C84.1662 417.326 83.858 417.724 83.4602 418.095C83.0691 418.46 82.5753 418.755 81.9787 418.98C81.3887 419.199 80.696 419.308 79.9006 419.308ZM80.8352 416.663C81.5578 416.663 82.1842 416.521 82.7145 416.236C83.2448 415.944 83.6525 415.56 83.9375 415.082C84.2292 414.605 84.375 414.085 84.375 413.521V411.722C84.2623 411.814 84.0701 411.901 83.7983 411.98C83.5331 412.06 83.2348 412.129 82.9034 412.189C82.572 412.249 82.2438 412.302 81.919 412.348C81.5942 412.394 81.3125 412.434 81.0739 412.467C80.5369 412.54 80.0563 412.66 79.6321 412.825C79.2079 412.991 78.8731 413.223 78.6278 413.521C78.3826 413.813 78.2599 414.191 78.2599 414.655C78.2599 415.318 78.5019 415.818 78.9858 416.156C79.4697 416.494 80.0862 416.663 80.8352 416.663ZM93.2741 424.727C92.7836 424.727 92.3295 424.688 91.9119 424.608C91.5009 424.535 91.1728 424.449 90.9276 424.349L91.7628 421.545C92.2865 421.698 92.7538 421.771 93.1648 421.764C93.5758 421.758 93.937 421.628 94.2486 421.376C94.5668 421.131 94.8352 420.72 95.054 420.143L95.3622 419.318L89.8239 403.727H93.642L97.1619 415.261H97.321L100.851 403.727H104.679L98.5639 420.849C98.2789 421.658 97.901 422.351 97.4304 422.928C96.9598 423.511 96.383 423.955 95.7003 424.26C95.0241 424.571 94.2154 424.727 93.2741 424.727ZM110.769 410.051V419H107.17V403.727H110.61V406.322H110.789C111.14 405.467 111.701 404.788 112.469 404.284C113.245 403.78 114.203 403.528 115.343 403.528C116.397 403.528 117.315 403.754 118.097 404.205C118.886 404.655 119.496 405.308 119.927 406.163C120.364 407.018 120.58 408.056 120.573 409.276V419H116.974V409.832C116.974 408.812 116.709 408.013 116.178 407.436C115.655 406.859 114.929 406.571 114.001 406.571C113.371 406.571 112.811 406.71 112.32 406.989C111.836 407.26 111.455 407.655 111.177 408.172C110.905 408.689 110.769 409.315 110.769 410.051ZM128.627 419.308C127.659 419.308 126.788 419.136 126.012 418.791C125.243 418.44 124.633 417.923 124.183 417.24C123.738 416.557 123.516 415.715 123.516 414.714C123.516 413.853 123.675 413.14 123.994 412.577C124.312 412.013 124.746 411.562 125.296 411.224C125.846 410.886 126.466 410.631 127.156 410.459C127.852 410.28 128.571 410.151 129.313 410.071C130.208 409.978 130.934 409.895 131.491 409.822C132.048 409.743 132.452 409.624 132.704 409.464C132.962 409.299 133.092 409.044 133.092 408.699V408.639C133.092 407.89 132.87 407.31 132.425 406.899C131.981 406.488 131.342 406.283 130.506 406.283C129.625 406.283 128.925 406.475 128.408 406.859C127.898 407.244 127.553 407.698 127.374 408.222L124.013 407.744C124.279 406.816 124.716 406.041 125.326 405.418C125.936 404.788 126.682 404.317 127.563 404.006C128.445 403.688 129.419 403.528 130.487 403.528C131.222 403.528 131.955 403.615 132.684 403.787C133.413 403.959 134.079 404.244 134.683 404.642C135.286 405.033 135.77 405.567 136.134 406.243C136.505 406.919 136.691 407.764 136.691 408.778V419H133.231V416.902H133.112C132.893 417.326 132.585 417.724 132.187 418.095C131.796 418.46 131.302 418.755 130.705 418.98C130.115 419.199 129.423 419.308 128.627 419.308ZM129.562 416.663C130.284 416.663 130.911 416.521 131.441 416.236C131.971 415.944 132.379 415.56 132.664 415.082C132.956 414.605 133.102 414.085 133.102 413.521V411.722C132.989 411.814 132.797 411.901 132.525 411.98C132.26 412.06 131.961 412.129 131.63 412.189C131.299 412.249 130.97 412.302 130.646 412.348C130.321 412.394 130.039 412.434 129.8 412.467C129.263 412.54 128.783 412.66 128.359 412.825C127.934 412.991 127.6 413.223 127.354 413.521C127.109 413.813 126.987 414.191 126.987 414.655C126.987 415.318 127.228 415.818 127.712 416.156C128.196 416.494 128.813 416.663 129.562 416.663ZM140.31 419V403.727H143.8V406.273H143.96C144.238 405.391 144.715 404.712 145.391 404.234C146.074 403.75 146.853 403.509 147.728 403.509C147.927 403.509 148.149 403.518 148.394 403.538C148.646 403.552 148.855 403.575 149.021 403.608V406.919C148.868 406.866 148.626 406.82 148.295 406.78C147.97 406.733 147.655 406.71 147.35 406.71C146.694 406.71 146.104 406.853 145.58 407.138C145.063 407.416 144.656 407.804 144.357 408.301C144.059 408.798 143.91 409.372 143.91 410.021V419H140.31ZM155.533 419.308C154.566 419.308 153.694 419.136 152.918 418.791C152.149 418.44 151.54 417.923 151.089 417.24C150.645 416.557 150.423 415.715 150.423 414.714C150.423 413.853 150.582 413.14 150.9 412.577C151.218 412.013 151.652 411.562 152.202 411.224C152.753 410.886 153.372 410.631 154.062 410.459C154.758 410.28 155.477 410.151 156.219 410.071C157.114 409.978 157.84 409.895 158.397 409.822C158.954 409.743 159.358 409.624 159.61 409.464C159.869 409.299 159.998 409.044 159.998 408.699V408.639C159.998 407.89 159.776 407.31 159.332 406.899C158.888 406.488 158.248 406.283 157.413 406.283C156.531 406.283 155.832 406.475 155.315 406.859C154.804 407.244 154.46 407.698 154.281 408.222L150.92 407.744C151.185 406.816 151.622 406.041 152.232 405.418C152.842 404.788 153.588 404.317 154.469 404.006C155.351 403.688 156.326 403.528 157.393 403.528C158.129 403.528 158.861 403.615 159.59 403.787C160.319 403.959 160.986 404.244 161.589 404.642C162.192 405.033 162.676 405.567 163.04 406.243C163.412 406.919 163.597 407.764 163.597 408.778V419H160.137V416.902H160.018C159.799 417.326 159.491 417.724 159.093 418.095C158.702 418.46 158.208 418.755 157.612 418.98C157.022 419.199 156.329 419.308 155.533 419.308ZM156.468 416.663C157.191 416.663 157.817 416.521 158.347 416.236C158.878 415.944 159.285 415.56 159.57 415.082C159.862 414.605 160.008 414.085 160.008 413.521V411.722C159.895 411.814 159.703 411.901 159.431 411.98C159.166 412.06 158.868 412.129 158.536 412.189C158.205 412.249 157.877 412.302 157.552 412.348C157.227 412.394 156.945 412.434 156.707 412.467C156.17 412.54 155.689 412.66 155.265 412.825C154.841 412.991 154.506 413.223 154.261 413.521C154.015 413.813 153.893 414.191 153.893 414.655C153.893 415.318 154.135 415.818 154.619 416.156C155.103 416.494 155.719 416.663 156.468 416.663Z" fill="white"/>
<path d="M67.5824 56V29.8182H84.3551V33.794H72.3253V40.902H83.2045V44.8778H72.3253V56H67.5824ZM93.9464 56.3963C92.7021 56.3963 91.5813 56.1747 90.5842 55.7315C89.5955 55.2798 88.8114 54.6151 88.2319 53.7372C87.6609 52.8594 87.3754 51.777 87.3754 50.4901C87.3754 49.3821 87.5799 48.4659 87.989 47.7415C88.3981 47.017 88.9563 46.4375 89.6637 46.0028C90.3711 45.5682 91.168 45.2401 92.0543 45.0185C92.9492 44.7884 93.8739 44.6222 94.8285 44.5199C95.979 44.4006 96.9123 44.294 97.6282 44.2003C98.3441 44.098 98.864 43.9446 99.1879 43.7401C99.5202 43.527 99.6864 43.1989 99.6864 42.7557V42.679C99.6864 41.7159 99.4009 40.9702 98.8299 40.4418C98.2589 39.9134 97.4364 39.6491 96.3626 39.6491C95.229 39.6491 94.3299 39.8963 93.6651 40.3906C93.0089 40.8849 92.5657 41.4687 92.3356 42.142L88.0146 41.5284C88.3555 40.3352 88.918 39.3381 89.7021 38.5369C90.4862 37.7273 91.445 37.1222 92.5785 36.7216C93.712 36.3125 94.9648 36.108 96.337 36.108C97.283 36.108 98.2248 36.2188 99.1623 36.4403C100.1 36.6619 100.956 37.0284 101.732 37.5398C102.507 38.0426 103.13 38.7287 103.598 39.598C104.076 40.4673 104.314 41.554 104.314 42.858V56H99.8654V53.3026H99.712C99.4308 53.848 99.0344 54.3594 98.5231 54.8366C98.0202 55.3054 97.3853 55.6847 96.6183 55.9744C95.8597 56.2557 94.9691 56.3963 93.9464 56.3963ZM95.1481 52.9957C96.0771 52.9957 96.8825 52.8125 97.5643 52.446C98.2461 52.071 98.7702 51.5767 99.1367 50.9631C99.5117 50.3494 99.6992 49.6804 99.6992 48.956V46.642C99.5543 46.7614 99.3072 46.8722 98.9577 46.9744C98.6168 47.0767 98.2333 47.1662 97.8072 47.2429C97.381 47.3196 96.9592 47.3878 96.5415 47.4474C96.1239 47.5071 95.7617 47.5582 95.4549 47.6009C94.7646 47.6946 94.1467 47.848 93.6012 48.0611C93.0558 48.2741 92.6254 48.5724 92.31 48.956C91.9947 49.331 91.837 49.8168 91.837 50.4134C91.837 51.2656 92.1481 51.9091 92.7702 52.3438C93.3924 52.7784 94.185 52.9957 95.1481 52.9957ZM117.533 56.3835C115.573 56.3835 113.89 55.9531 112.483 55.0923C111.086 54.2315 110.007 53.0426 109.249 51.5256C108.499 50 108.124 48.2443 108.124 46.2585C108.124 44.2642 108.507 42.5043 109.275 40.9787C110.042 39.4446 111.124 38.2514 112.522 37.3991C113.928 36.5384 115.59 36.108 117.507 36.108C119.101 36.108 120.512 36.402 121.739 36.9901C122.975 37.5696 123.959 38.392 124.692 39.4574C125.425 40.5142 125.843 41.75 125.945 43.1648H121.522C121.343 42.2187 120.917 41.4304 120.243 40.7997C119.578 40.1605 118.688 39.8409 117.571 39.8409C116.625 39.8409 115.794 40.0966 115.078 40.608C114.363 41.1108 113.804 41.8352 113.404 42.7812C113.012 43.7273 112.816 44.8608 112.816 46.1818C112.816 47.5199 113.012 48.6705 113.404 49.6335C113.796 50.5881 114.346 51.3253 115.053 51.8452C115.769 52.3565 116.608 52.6122 117.571 52.6122C118.253 52.6122 118.863 52.4844 119.4 52.2287C119.945 51.9645 120.401 51.5852 120.767 51.0909C121.134 50.5966 121.385 49.9957 121.522 49.2884H125.945C125.834 50.6776 125.425 51.9091 124.718 52.983C124.01 54.0483 123.047 54.8835 121.828 55.4886C120.61 56.0852 119.178 56.3835 117.533 56.3835ZM142.261 47.7415V36.3636H146.888V56H142.401V52.5099H142.197C141.754 53.6094 141.025 54.5085 140.011 55.2074C139.005 55.9062 137.765 56.2557 136.29 56.2557C135.004 56.2557 133.866 55.9702 132.877 55.3991C131.897 54.8196 131.13 53.9801 130.576 52.8807C130.022 51.7727 129.745 50.4347 129.745 48.8665V36.3636H134.373V48.1506C134.373 49.3949 134.714 50.3835 135.396 51.1165C136.077 51.8494 136.972 52.2159 138.08 52.2159C138.762 52.2159 139.423 52.0497 140.062 51.7173C140.701 51.3849 141.225 50.8906 141.634 50.2344C142.052 49.5696 142.261 48.7386 142.261 47.7415ZM156.275 29.8182V56H151.647V29.8182H156.275ZM168.321 56.3452C166.778 56.3452 165.398 55.9489 164.179 55.1562C162.96 54.3636 161.997 53.2131 161.29 51.7045C160.582 50.196 160.229 48.3636 160.229 46.2074C160.229 44.0256 160.587 42.1847 161.303 40.6847C162.027 39.1761 163.003 38.0384 164.23 37.2713C165.457 36.4957 166.825 36.108 168.334 36.108C169.484 36.108 170.43 36.304 171.172 36.696C171.913 37.0795 172.501 37.544 172.936 38.0895C173.371 38.6264 173.707 39.1335 173.946 39.6108H174.138V29.8182H178.778V56H174.227V52.9062H173.946C173.707 53.3835 173.362 53.8906 172.911 54.4276C172.459 54.956 171.862 55.4077 171.121 55.7827C170.379 56.1577 169.446 56.3452 168.321 56.3452ZM169.612 52.5483C170.592 52.5483 171.428 52.2841 172.118 51.7557C172.808 51.2187 173.332 50.473 173.69 49.5185C174.048 48.5639 174.227 47.4517 174.227 46.1818C174.227 44.9119 174.048 43.8082 173.69 42.8707C173.341 41.9332 172.821 41.2045 172.131 40.6847C171.449 40.1648 170.609 39.9048 169.612 39.9048C168.581 39.9048 167.72 40.1733 167.03 40.7102C166.339 41.2472 165.82 41.9886 165.47 42.9347C165.121 43.8807 164.946 44.9631 164.946 46.1818C164.946 47.4091 165.121 48.5043 165.47 49.4673C165.828 50.4219 166.352 51.1761 167.043 51.7301C167.741 52.2756 168.598 52.5483 169.612 52.5483ZM189.36 56.3963C188.116 56.3963 186.995 56.1747 185.998 55.7315C185.01 55.2798 184.225 54.6151 183.646 53.7372C183.075 52.8594 182.789 51.777 182.789 50.4901C182.789 49.3821 182.994 48.4659 183.403 47.7415C183.812 47.017 184.37 46.4375 185.078 46.0028C185.785 45.5682 186.582 45.2401 187.468 45.0185C188.363 44.7884 189.288 44.6222 190.243 44.5199C191.393 44.4006 192.326 44.294 193.042 44.2003C193.758 44.098 194.278 43.9446 194.602 43.7401C194.934 43.527 195.1 43.1989 195.1 42.7557V42.679C195.1 41.7159 194.815 40.9702 194.244 40.4418C193.673 39.9134 192.85 39.6491 191.777 39.6491C190.643 39.6491 189.744 39.8963 189.079 40.3906C188.423 40.8849 187.98 41.4687 187.75 42.142L183.429 41.5284C183.77 40.3352 184.332 39.3381 185.116 38.5369C185.9 37.7273 186.859 37.1222 187.993 36.7216C189.126 36.3125 190.379 36.108 191.751 36.108C192.697 36.108 193.639 36.2188 194.576 36.4403C195.514 36.6619 196.37 37.0284 197.146 37.5398C197.922 38.0426 198.544 38.7287 199.012 39.598C199.49 40.4673 199.728 41.554 199.728 42.858V56H195.279V53.3026H195.126C194.845 53.848 194.449 54.3594 193.937 54.8366C193.434 55.3054 192.799 55.6847 192.032 55.9744C191.274 56.2557 190.383 56.3963 189.36 56.3963ZM190.562 52.9957C191.491 52.9957 192.297 52.8125 192.978 52.446C193.66 52.071 194.184 51.5767 194.551 50.9631C194.926 50.3494 195.113 49.6804 195.113 48.956V46.642C194.968 46.7614 194.721 46.8722 194.372 46.9744C194.031 47.0767 193.647 47.1662 193.221 47.2429C192.795 47.3196 192.373 47.3878 191.956 47.4474C191.538 47.5071 191.176 47.5582 190.869 47.6009C190.179 47.6946 189.561 47.848 189.015 48.0611C188.47 48.2741 188.039 48.5724 187.724 48.956C187.409 49.331 187.251 49.8168 187.251 50.4134C187.251 51.2656 187.562 51.9091 188.184 52.3438C188.806 52.7784 189.599 52.9957 190.562 52.9957ZM211.669 56.3452C210.126 56.3452 208.745 55.9489 207.527 55.1562C206.308 54.3636 205.345 53.2131 204.637 51.7045C203.93 50.196 203.576 48.3636 203.576 46.2074C203.576 44.0256 203.934 42.1847 204.65 40.6847C205.375 39.1761 206.35 38.0384 207.578 37.2713C208.805 36.4957 210.173 36.108 211.681 36.108C212.832 36.108 213.778 36.304 214.52 36.696C215.261 37.0795 215.849 37.544 216.284 38.0895C216.718 38.6264 217.055 39.1335 217.294 39.6108H217.485V29.8182H222.126V56H217.575V52.9062H217.294C217.055 53.3835 216.71 53.8906 216.258 54.4276C215.806 54.956 215.21 55.4077 214.468 55.7827C213.727 56.1577 212.794 56.3452 211.669 56.3452ZM212.96 52.5483C213.94 52.5483 214.775 52.2841 215.466 51.7557C216.156 51.2187 216.68 50.473 217.038 49.5185C217.396 48.5639 217.575 47.4517 217.575 46.1818C217.575 44.9119 217.396 43.8082 217.038 42.8707C216.689 41.9332 216.169 41.2045 215.478 40.6847C214.797 40.1648 213.957 39.9048 212.96 39.9048C211.929 39.9048 211.068 40.1733 210.377 40.7102C209.687 41.2472 209.167 41.9886 208.818 42.9347C208.468 43.8807 208.294 44.9631 208.294 46.1818C208.294 47.4091 208.468 48.5043 208.818 49.4673C209.176 50.4219 209.7 51.1761 210.39 51.7301C211.089 52.2756 211.946 52.5483 212.96 52.5483ZM235.751 56.3835C233.782 56.3835 232.082 55.9744 230.65 55.1562C229.227 54.3295 228.131 53.1619 227.364 51.6534C226.597 50.1364 226.214 48.3509 226.214 46.2969C226.214 44.277 226.597 42.5043 227.364 40.9787C228.14 39.4446 229.222 38.2514 230.612 37.3991C232.001 36.5384 233.633 36.108 235.508 36.108C236.718 36.108 237.86 36.304 238.934 36.696C240.016 37.0795 240.971 37.6761 241.798 38.4858C242.633 39.2955 243.289 40.3267 243.766 41.5795C244.244 42.8239 244.482 44.3068 244.482 46.0284V47.4474H228.387V44.3281H240.046C240.038 43.4418 239.846 42.6534 239.471 41.9631C239.096 41.2642 238.572 40.7145 237.898 40.3139C237.234 39.9134 236.458 39.7131 235.572 39.7131C234.626 39.7131 233.795 39.9432 233.079 40.4034C232.363 40.8551 231.805 41.4517 231.404 42.1932C231.012 42.9261 230.812 43.7315 230.803 44.6094V47.3324C230.803 48.4744 231.012 49.4545 231.43 50.2727C231.847 51.0824 232.431 51.7045 233.181 52.1392C233.931 52.5653 234.809 52.7784 235.815 52.7784C236.488 52.7784 237.097 52.6847 237.643 52.4972C238.188 52.3011 238.661 52.0156 239.062 51.6406C239.462 51.2656 239.765 50.8011 239.969 50.2472L244.29 50.733C244.018 51.875 243.498 52.8722 242.731 53.7244C241.972 54.5682 241.001 55.2244 239.816 55.6932C238.631 56.1534 237.276 56.3835 235.751 56.3835ZM266.404 56H257.532V29.8182H266.583C269.182 29.8182 271.415 30.3423 273.282 31.3906C275.157 32.4304 276.597 33.9261 277.603 35.8778C278.608 37.8295 279.111 40.1648 279.111 42.8835C279.111 45.6108 278.604 47.9545 277.59 49.9148C276.584 51.875 275.131 53.3793 273.23 54.4276C271.338 55.4759 269.063 56 266.404 56ZM262.275 51.8963H266.174C267.998 51.8963 269.519 51.5639 270.738 50.8991C271.956 50.2259 272.873 49.2244 273.486 47.8949C274.1 46.5568 274.407 44.8864 274.407 42.8835C274.407 40.8807 274.1 39.2187 273.486 37.8977C272.873 36.5682 271.965 35.5753 270.763 34.919C269.57 34.2543 268.087 33.9219 266.314 33.9219H262.275V51.8963ZM291.978 56.3835C290.061 56.3835 288.399 55.9616 286.993 55.1179C285.586 54.2741 284.495 53.0937 283.72 51.5767C282.953 50.0597 282.569 48.2869 282.569 46.2585C282.569 44.2301 282.953 42.4531 283.72 40.9276C284.495 39.402 285.586 38.2173 286.993 37.3736C288.399 36.5298 290.061 36.108 291.978 36.108C293.896 36.108 295.558 36.5298 296.964 37.3736C298.37 38.2173 299.457 39.402 300.224 40.9276C301 42.4531 301.387 44.2301 301.387 46.2585C301.387 48.2869 301 50.0597 300.224 51.5767C299.457 53.0937 298.37 54.2741 296.964 55.1179C295.558 55.9616 293.896 56.3835 291.978 56.3835ZM292.004 52.6761C293.044 52.6761 293.913 52.3906 294.612 51.8196C295.311 51.2401 295.831 50.4645 296.172 49.4929C296.521 48.5213 296.696 47.4389 296.696 46.2457C296.696 45.044 296.521 43.9574 296.172 42.9858C295.831 42.0057 295.311 41.2259 294.612 40.6463C293.913 40.0668 293.044 39.777 292.004 39.777C290.939 39.777 290.052 40.0668 289.345 40.6463C288.646 41.2259 288.122 42.0057 287.772 42.9858C287.431 43.9574 287.261 45.044 287.261 46.2457C287.261 47.4389 287.431 48.5213 287.772 49.4929C288.122 50.4645 288.646 51.2401 289.345 51.8196C290.052 52.3906 290.939 52.6761 292.004 52.6761ZM317.812 56H312.749L321.967 29.8182H327.822L337.052 56H331.989L324.996 35.1875H324.792L317.812 56ZM317.978 45.7344H331.785V49.544H317.978V45.7344ZM344.924 29.8182V56H340.296V29.8182H344.924ZM362.198 47.7415V36.3636H366.826V56H362.339V52.5099H362.134C361.691 53.6094 360.962 54.5085 359.948 55.2074C358.942 55.9062 357.702 56.2557 356.228 56.2557C354.941 56.2557 353.803 55.9702 352.815 55.3991C351.835 54.8196 351.067 53.9801 350.513 52.8807C349.96 51.7727 349.683 50.4347 349.683 48.8665V36.3636H354.31V48.1506C354.31 49.3949 354.651 50.3835 355.333 51.1165C356.015 51.8494 356.91 52.2159 358.018 52.2159C358.7 52.2159 359.36 52.0497 359.999 51.7173C360.638 51.3849 361.163 50.8906 361.572 50.2344C361.989 49.5696 362.198 48.7386 362.198 47.7415ZM376.213 44.4943V56H371.585V36.3636H376.008V39.7003H376.238C376.69 38.6009 377.41 37.7273 378.399 37.0795C379.396 36.4318 380.627 36.108 382.093 36.108C383.449 36.108 384.629 36.3977 385.635 36.9773C386.649 37.5568 387.433 38.3963 387.987 39.4957C388.549 40.5952 388.826 41.929 388.818 43.4972V56H384.19V44.2131C384.19 42.9006 383.849 41.8736 383.167 41.1321C382.494 40.3906 381.561 40.0199 380.368 40.0199C379.558 40.0199 378.838 40.1989 378.207 40.5568C377.585 40.9062 377.095 41.4134 376.737 42.0781C376.387 42.7429 376.213 43.5483 376.213 44.4943ZM402.088 56.3835C400.17 56.3835 398.508 55.9616 397.102 55.1179C395.696 54.2741 394.605 53.0937 393.829 51.5767C393.062 50.0597 392.679 48.2869 392.679 46.2585C392.679 44.2301 393.062 42.4531 393.829 40.9276C394.605 39.402 395.696 38.2173 397.102 37.3736C398.508 36.5298 400.17 36.108 402.088 36.108C404.005 36.108 405.667 36.5298 407.074 37.3736C408.48 38.2173 409.566 39.402 410.333 40.9276C411.109 42.4531 411.497 44.2301 411.497 46.2585C411.497 48.2869 411.109 50.0597 410.333 51.5767C409.566 53.0937 408.48 54.2741 407.074 55.1179C405.667 55.9616 404.005 56.3835 402.088 56.3835ZM402.113 52.6761C403.153 52.6761 404.022 52.3906 404.721 51.8196C405.42 51.2401 405.94 50.4645 406.281 49.4929C406.63 48.5213 406.805 47.4389 406.805 46.2457C406.805 45.044 406.63 43.9574 406.281 42.9858C405.94 42.0057 405.42 41.2259 404.721 40.6463C404.022 40.0668 403.153 39.777 402.113 39.777C401.048 39.777 400.162 40.0668 399.454 40.6463C398.755 41.2259 398.231 42.0057 397.882 42.9858C397.541 43.9574 397.37 45.044 397.37 46.2457C397.37 47.4389 397.541 48.5213 397.882 49.4929C398.231 50.4645 398.755 51.2401 399.454 51.8196C400.162 52.3906 401.048 52.6761 402.113 52.6761Z" fill="white"/>
<path d="M110.662 537.435H107.474C107.384 536.912 107.216 536.449 106.972 536.045C106.727 535.636 106.423 535.29 106.06 535.006C105.696 534.722 105.281 534.509 104.815 534.366C104.355 534.219 103.858 534.145 103.324 534.145C102.375 534.145 101.534 534.384 100.801 534.861C100.068 535.332 99.4943 536.026 99.0795 536.94C98.6648 537.849 98.4574 538.96 98.4574 540.273C98.4574 541.608 98.6648 542.733 99.0795 543.648C99.5 544.557 100.074 545.244 100.801 545.71C101.534 546.17 102.372 546.401 103.315 546.401C103.838 546.401 104.327 546.332 104.781 546.196C105.241 546.054 105.653 545.847 106.017 545.574C106.386 545.301 106.696 544.966 106.946 544.568C107.202 544.17 107.378 543.716 107.474 543.205L110.662 543.222C110.543 544.051 110.284 544.83 109.886 545.557C109.494 546.284 108.98 546.926 108.344 547.483C107.707 548.034 106.963 548.466 106.111 548.778C105.259 549.085 104.313 549.239 103.273 549.239C101.739 549.239 100.369 548.884 99.1648 548.173C97.9602 547.463 97.0114 546.438 96.3182 545.097C95.625 543.756 95.2784 542.148 95.2784 540.273C95.2784 538.392 95.6278 536.784 96.3267 535.449C97.0256 534.108 97.9773 533.082 99.1818 532.372C100.386 531.662 101.75 531.307 103.273 531.307C104.244 531.307 105.148 531.443 105.983 531.716C106.818 531.989 107.563 532.389 108.216 532.918C108.869 533.44 109.406 534.082 109.827 534.844C110.253 535.599 110.531 536.463 110.662 537.435ZM113.558 549V531.545H120.103C121.444 531.545 122.569 531.795 123.478 532.295C124.393 532.795 125.083 533.483 125.549 534.358C126.021 535.227 126.256 536.216 126.256 537.324C126.256 538.443 126.021 539.437 125.549 540.307C125.077 541.176 124.381 541.861 123.461 542.361C122.54 542.855 121.407 543.102 120.06 543.102H115.722V540.503H119.634C120.418 540.503 121.06 540.366 121.56 540.094C122.06 539.821 122.43 539.446 122.668 538.969C122.913 538.491 123.035 537.943 123.035 537.324C123.035 536.705 122.913 536.159 122.668 535.688C122.43 535.216 122.058 534.849 121.552 534.588C121.052 534.321 120.407 534.188 119.617 534.188H116.719V549H113.558ZM129.003 549V531.545H140.185V534.196H132.165V538.935H139.418V541.585H132.165V549H129.003ZM144.83 546.903C144.313 546.903 143.869 546.722 143.5 546.358C143.131 545.989 142.949 545.545 142.955 545.028C142.949 544.517 143.131 544.08 143.5 543.716C143.869 543.352 144.313 543.17 144.83 543.17C145.33 543.17 145.764 543.352 146.134 543.716C146.509 544.08 146.699 544.517 146.705 545.028C146.699 545.375 146.608 545.69 146.432 545.974C146.261 546.259 146.034 546.486 145.75 546.656C145.472 546.821 145.165 546.903 144.83 546.903ZM144.83 538.253C144.313 538.253 143.869 538.071 143.5 537.707C143.131 537.338 142.949 536.895 142.955 536.378C142.949 535.866 143.131 535.429 143.5 535.065C143.869 534.696 144.313 534.511 144.83 534.511C145.33 534.511 145.764 534.696 146.134 535.065C146.509 535.429 146.699 535.866 146.705 536.378C146.699 536.719 146.608 537.031 146.432 537.315C146.261 537.599 146.034 537.827 145.75 537.997C145.472 538.168 145.165 538.253 144.83 538.253ZM156.452 545.42V543.682L164.123 531.545H165.384V534.239H164.532L158.737 543.409V543.545H169.066V545.42H156.452ZM164.668 549V544.892V544.082V531.545H166.68V549H164.668ZM171.851 545.42V543.682L179.521 531.545H180.783V534.239H179.93L174.135 543.409V543.545H184.464V545.42H171.851ZM180.067 549V544.892V544.082V531.545H182.078V549H180.067ZM187.249 545.42V543.682L194.92 531.545H196.181V534.239H195.329L189.533 543.409V543.545H199.863V545.42H187.249ZM195.465 549V544.892V544.082V531.545H197.477V549H195.465ZM203.737 549.136C203.316 549.136 202.955 548.986 202.654 548.685C202.353 548.384 202.202 548.023 202.202 547.602C202.202 547.182 202.353 546.821 202.654 546.52C202.955 546.219 203.316 546.068 203.737 546.068C204.157 546.068 204.518 546.219 204.819 546.52C205.12 546.821 205.271 547.182 205.271 547.602C205.271 547.881 205.2 548.136 205.058 548.369C204.921 548.602 204.737 548.79 204.504 548.932C204.276 549.068 204.021 549.136 203.737 549.136ZM208.437 545.42V543.682L216.107 531.545H217.369V534.239H216.516L210.721 543.409V543.545H221.05V545.42H208.437ZM216.653 549V544.892V544.082V531.545H218.664V549H216.653ZM223.835 545.42V543.682L231.506 531.545H232.767V534.239H231.915L226.119 543.409V543.545H236.449V545.42H223.835ZM232.051 549V544.892V544.082V531.545H234.062V549H232.051ZM239.234 545.42V543.682L246.904 531.545H248.165V534.239H247.313L241.518 543.409V543.545H251.847V545.42H239.234ZM247.45 549V544.892V544.082V531.545H249.461V549H247.45ZM255.721 549.136C255.3 549.136 254.94 548.986 254.638 548.685C254.337 548.384 254.187 548.023 254.187 547.602C254.187 547.182 254.337 546.821 254.638 546.52C254.94 546.219 255.3 546.068 255.721 546.068C256.141 546.068 256.502 546.219 256.803 546.52C257.104 546.821 257.255 547.182 257.255 547.602C257.255 547.881 257.184 548.136 257.042 548.369C256.906 548.602 256.721 548.79 256.488 548.932C256.261 549.068 256.005 549.136 255.721 549.136ZM260.421 545.42V543.682L268.092 531.545H269.353V534.239H268.501L262.705 543.409V543.545H273.035V545.42H260.421ZM268.637 549V544.892V544.082V531.545H270.648V549H268.637ZM275.82 545.42V543.682L283.49 531.545H284.751V534.239H283.899L278.104 543.409V543.545H288.433V545.42H275.82ZM284.036 549V544.892V544.082V531.545H286.047V549H284.036ZM291.218 545.42V543.682L298.888 531.545H300.15V534.239H299.298L293.502 543.409V543.545H303.832V545.42H291.218ZM299.434 549V544.892V544.082V531.545H301.445V549H299.434ZM307.705 549.136C307.285 549.136 306.924 548.986 306.623 548.685C306.322 548.384 306.171 548.023 306.171 547.602C306.171 547.182 306.322 546.821 306.623 546.52C306.924 546.219 307.285 546.068 307.705 546.068C308.126 546.068 308.487 546.219 308.788 546.52C309.089 546.821 309.239 547.182 309.239 547.602C309.239 547.881 309.168 548.136 309.026 548.369C308.89 548.602 308.705 548.79 308.472 548.932C308.245 549.068 307.989 549.136 307.705 549.136ZM312.406 545.42V543.682L320.076 531.545H321.337V534.239H320.485L314.69 543.409V543.545H325.019V545.42H312.406ZM320.621 549V544.892V544.082V531.545H322.633V549H320.621ZM327.804 545.42V543.682L335.474 531.545H336.736V534.239H335.884L330.088 543.409V543.545H340.418V545.42H327.804ZM336.02 549V544.892V544.082V531.545H338.031V549H336.02ZM343.202 545.42V543.682L350.873 531.545H352.134V534.239H351.282L345.487 543.409V543.545H355.816V545.42H343.202ZM351.418 549V544.892V544.082V531.545H353.43V549H351.418Z" fill="white"/>
<path d="M80.7216 574.545H84.5909L89.7727 587.193H89.9773L95.1591 574.545H99.0284V592H95.9943V580.009H95.8324L91.0085 591.949H88.7415L83.9176 579.983H83.7557V592H80.7216V574.545ZM106.102 592.264C105.273 592.264 104.526 592.116 103.861 591.821C103.202 591.52 102.679 591.077 102.293 590.491C101.912 589.906 101.722 589.185 101.722 588.327C101.722 587.588 101.858 586.977 102.131 586.494C102.403 586.011 102.776 585.625 103.247 585.335C103.719 585.045 104.25 584.827 104.841 584.679C105.438 584.526 106.054 584.415 106.69 584.347C107.457 584.267 108.08 584.196 108.557 584.134C109.034 584.065 109.381 583.963 109.597 583.827C109.818 583.685 109.929 583.466 109.929 583.17V583.119C109.929 582.477 109.739 581.98 109.358 581.628C108.977 581.276 108.429 581.099 107.713 581.099C106.957 581.099 106.358 581.264 105.915 581.594C105.477 581.923 105.182 582.312 105.028 582.761L102.148 582.352C102.375 581.557 102.75 580.892 103.273 580.358C103.795 579.818 104.435 579.415 105.19 579.148C105.946 578.875 106.781 578.739 107.696 578.739C108.327 578.739 108.955 578.812 109.58 578.96C110.205 579.108 110.776 579.352 111.293 579.693C111.81 580.028 112.224 580.486 112.537 581.065C112.855 581.645 113.014 582.369 113.014 583.239V592H110.048V590.202H109.946C109.759 590.565 109.494 590.906 109.153 591.224C108.818 591.537 108.395 591.79 107.884 591.983C107.378 592.17 106.784 592.264 106.102 592.264ZM106.903 589.997C107.523 589.997 108.06 589.875 108.514 589.631C108.969 589.381 109.318 589.051 109.562 588.642C109.812 588.233 109.938 587.787 109.938 587.304V585.761C109.841 585.841 109.676 585.915 109.443 585.983C109.216 586.051 108.96 586.111 108.676 586.162C108.392 586.213 108.111 586.259 107.832 586.298C107.554 586.338 107.313 586.372 107.108 586.401C106.648 586.463 106.236 586.565 105.872 586.707C105.509 586.849 105.222 587.048 105.011 587.304C104.801 587.554 104.696 587.878 104.696 588.276C104.696 588.844 104.903 589.273 105.318 589.562C105.733 589.852 106.261 589.997 106.903 589.997ZM122.653 578.909V581.295H115.128V578.909H122.653ZM116.986 575.773H120.071V588.062C120.071 588.477 120.134 588.795 120.259 589.017C120.389 589.233 120.56 589.381 120.77 589.46C120.98 589.54 121.213 589.58 121.469 589.58C121.662 589.58 121.838 589.565 121.997 589.537C122.162 589.509 122.287 589.483 122.372 589.46L122.892 591.872C122.727 591.929 122.491 591.991 122.185 592.06C121.884 592.128 121.514 592.168 121.077 592.179C120.304 592.202 119.608 592.085 118.989 591.83C118.369 591.568 117.878 591.165 117.514 590.619C117.156 590.074 116.98 589.392 116.986 588.574V575.773ZM125.234 592V578.909H128.225V581.091H128.362C128.6 580.335 129.009 579.753 129.589 579.344C130.174 578.929 130.842 578.722 131.592 578.722C131.762 578.722 131.952 578.73 132.163 578.747C132.379 578.759 132.558 578.778 132.7 578.807V581.645C132.569 581.599 132.362 581.56 132.077 581.526C131.799 581.486 131.529 581.466 131.268 581.466C130.705 581.466 130.2 581.588 129.751 581.832C129.308 582.071 128.958 582.403 128.702 582.83C128.447 583.256 128.319 583.747 128.319 584.304V592H125.234ZM134.749 592V578.909H137.835V592H134.749ZM136.3 577.051C135.812 577.051 135.391 576.889 135.039 576.565C134.687 576.236 134.511 575.841 134.511 575.381C134.511 574.915 134.687 574.52 135.039 574.196C135.391 573.866 135.812 573.702 136.3 573.702C136.795 573.702 137.215 573.866 137.562 574.196C137.914 574.52 138.09 574.915 138.09 575.381C138.09 575.841 137.914 576.236 137.562 576.565C137.215 576.889 136.795 577.051 136.3 577.051ZM146.717 592.256C145.411 592.256 144.288 591.969 143.351 591.395C142.419 590.821 141.7 590.028 141.195 589.017C140.695 588 140.445 586.83 140.445 585.506C140.445 584.176 140.7 583.003 141.212 581.986C141.723 580.963 142.445 580.168 143.376 579.599C144.314 579.026 145.422 578.739 146.7 578.739C147.763 578.739 148.703 578.935 149.521 579.327C150.345 579.713 151.001 580.261 151.49 580.972C151.979 581.676 152.257 582.5 152.325 583.443H149.376C149.257 582.812 148.973 582.287 148.524 581.866C148.081 581.44 147.487 581.227 146.743 581.227C146.112 581.227 145.558 581.398 145.081 581.739C144.604 582.074 144.232 582.557 143.964 583.188C143.703 583.818 143.572 584.574 143.572 585.455C143.572 586.347 143.703 587.114 143.964 587.756C144.226 588.392 144.592 588.884 145.064 589.23C145.541 589.571 146.101 589.741 146.743 589.741C147.197 589.741 147.604 589.656 147.962 589.486C148.325 589.31 148.629 589.057 148.874 588.727C149.118 588.398 149.286 587.997 149.376 587.526H152.325C152.251 588.452 151.979 589.273 151.507 589.989C151.036 590.699 150.393 591.256 149.581 591.659C148.768 592.057 147.814 592.256 146.717 592.256ZM163.202 586.494V578.909H166.288V592H163.296V589.673H163.16C162.864 590.406 162.379 591.006 161.702 591.472C161.032 591.937 160.205 592.17 159.222 592.17C158.364 592.17 157.606 591.98 156.947 591.599C156.293 591.213 155.782 590.653 155.413 589.92C155.043 589.182 154.859 588.29 154.859 587.244V578.909H157.944V586.767C157.944 587.597 158.171 588.256 158.626 588.744C159.08 589.233 159.677 589.477 160.415 589.477C160.87 589.477 161.31 589.366 161.737 589.145C162.163 588.923 162.512 588.594 162.785 588.156C163.063 587.713 163.202 587.159 163.202 586.494ZM172.545 574.545V592H169.46V574.545H172.545ZM179.485 592.264C178.656 592.264 177.908 592.116 177.244 591.821C176.585 591.52 176.062 591.077 175.675 590.491C175.295 589.906 175.104 589.185 175.104 588.327C175.104 587.588 175.241 586.977 175.513 586.494C175.786 586.011 176.158 585.625 176.63 585.335C177.102 585.045 177.633 584.827 178.224 584.679C178.82 584.526 179.437 584.415 180.073 584.347C180.84 584.267 181.462 584.196 181.94 584.134C182.417 584.065 182.763 583.963 182.979 583.827C183.201 583.685 183.312 583.466 183.312 583.17V583.119C183.312 582.477 183.121 581.98 182.741 581.628C182.36 581.276 181.812 581.099 181.096 581.099C180.34 581.099 179.741 581.264 179.298 581.594C178.86 581.923 178.565 582.312 178.411 582.761L175.531 582.352C175.758 581.557 176.133 580.892 176.656 580.358C177.178 579.818 177.817 579.415 178.573 579.148C179.329 578.875 180.164 578.739 181.079 578.739C181.71 578.739 182.337 578.812 182.962 578.96C183.587 579.108 184.158 579.352 184.675 579.693C185.192 580.028 185.607 580.486 185.92 581.065C186.238 581.645 186.397 582.369 186.397 583.239V592H183.431V590.202H183.329C183.141 590.565 182.877 590.906 182.536 591.224C182.201 591.537 181.778 591.79 181.266 591.983C180.761 592.17 180.167 592.264 179.485 592.264ZM180.286 589.997C180.906 589.997 181.442 589.875 181.897 589.631C182.352 589.381 182.701 589.051 182.945 588.642C183.195 588.233 183.32 587.787 183.32 587.304V585.761C183.224 585.841 183.059 585.915 182.826 585.983C182.599 586.051 182.343 586.111 182.059 586.162C181.775 586.213 181.494 586.259 181.215 586.298C180.937 586.338 180.695 586.372 180.491 586.401C180.031 586.463 179.619 586.565 179.255 586.707C178.891 586.849 178.604 587.048 178.394 587.304C178.184 587.554 178.079 587.878 178.079 588.276C178.079 588.844 178.286 589.273 178.701 589.562C179.116 589.852 179.644 589.997 180.286 589.997ZM191.4 592.188C190.883 592.188 190.44 592.006 190.07 591.642C189.701 591.278 189.519 590.835 189.525 590.312C189.519 589.801 189.701 589.364 190.07 589C190.44 588.636 190.883 588.455 191.4 588.455C191.9 588.455 192.335 588.636 192.704 589C193.079 589.364 193.269 589.801 193.275 590.312C193.269 590.659 193.178 590.974 193.002 591.259C192.832 591.543 192.604 591.77 192.32 591.94C192.042 592.105 191.735 592.188 191.4 592.188ZM191.4 582.847C190.883 582.847 190.44 582.665 190.07 582.301C189.701 581.932 189.519 581.489 189.525 580.972C189.519 580.46 189.701 580.023 190.07 579.659C190.44 579.29 190.883 579.105 191.4 579.105C191.9 579.105 192.335 579.29 192.704 579.659C193.079 580.023 193.269 580.46 193.275 580.972C193.269 581.312 193.178 581.625 193.002 581.909C192.832 582.193 192.604 582.42 192.32 582.591C192.042 582.761 191.735 582.847 191.4 582.847ZM203.023 588.42V586.682L210.693 574.545H211.955V577.239H211.102L205.307 586.409V586.545H215.636V588.42H203.023ZM211.239 592V587.892V587.082V574.545H213.25V592H211.239ZM218.421 588.42V586.682L226.092 574.545H227.353V577.239H226.501L220.705 586.409V586.545H231.035V588.42H218.421ZM226.637 592V587.892V587.082V574.545H228.648V592H226.637ZM233.82 588.42V586.682L241.49 574.545H242.751V577.239H241.899L236.104 586.409V586.545H246.433V588.42H233.82ZM242.036 592V587.892V587.082V574.545H244.047V592H242.036ZM250.307 592.136C249.886 592.136 249.526 591.986 249.224 591.685C248.923 591.384 248.773 591.023 248.773 590.602C248.773 590.182 248.923 589.821 249.224 589.52C249.526 589.219 249.886 589.068 250.307 589.068C250.727 589.068 251.088 589.219 251.389 589.52C251.69 589.821 251.841 590.182 251.841 590.602C251.841 590.881 251.77 591.136 251.628 591.369C251.491 591.602 251.307 591.79 251.074 591.932C250.847 592.068 250.591 592.136 250.307 592.136ZM255.007 588.42V586.682L262.678 574.545H263.939V577.239H263.087L257.291 586.409V586.545H267.621V588.42H255.007ZM263.223 592V587.892V587.082V574.545H265.234V592H263.223ZM270.406 588.42V586.682L278.076 574.545H279.337V577.239H278.485L272.69 586.409V586.545H283.019V588.42H270.406ZM278.621 592V587.892V587.082V574.545H280.633V592H278.621ZM285.804 588.42V586.682L293.474 574.545H294.736V577.239H293.884L288.088 586.409V586.545H298.418V588.42H285.804ZM294.02 592V587.892V587.082V574.545H296.031V592H294.02ZM302.291 592.136C301.871 592.136 301.51 591.986 301.209 591.685C300.908 591.384 300.757 591.023 300.757 590.602C300.757 590.182 300.908 589.821 301.209 589.52C301.51 589.219 301.871 589.068 302.291 589.068C302.712 589.068 303.072 589.219 303.374 589.52C303.675 589.821 303.825 590.182 303.825 590.602C303.825 590.881 303.754 591.136 303.612 591.369C303.476 591.602 303.291 591.79 303.058 591.932C302.831 592.068 302.575 592.136 302.291 592.136ZM306.991 588.42V586.682L314.662 574.545H315.923V577.239H315.071L309.276 586.409V586.545H319.605V588.42H306.991ZM315.207 592V587.892V587.082V574.545H317.219V592H315.207ZM322.39 588.42V586.682L330.06 574.545H331.322V577.239H330.469L324.674 586.409V586.545H335.004V588.42H322.39ZM330.606 592V587.892V587.082V574.545H332.617V592H330.606ZM337.788 588.42V586.682L345.459 574.545H346.72V577.239H345.868L340.072 586.409V586.545H350.402V588.42H337.788ZM346.004 592V587.892V587.082V574.545H348.016V592H346.004ZM354.276 592.136C353.855 592.136 353.494 591.986 353.193 591.685C352.892 591.384 352.741 591.023 352.741 590.602C352.741 590.182 352.892 589.821 353.193 589.52C353.494 589.219 353.855 589.068 354.276 589.068C354.696 589.068 355.057 589.219 355.358 589.52C355.659 589.821 355.81 590.182 355.81 590.602C355.81 590.881 355.739 591.136 355.597 591.369C355.46 591.602 355.276 591.79 355.043 591.932C354.815 592.068 354.56 592.136 354.276 592.136ZM358.976 588.42V586.682L366.646 574.545H367.908V577.239H367.055L361.26 586.409V586.545H371.589V588.42H358.976ZM367.192 592V587.892V587.082V574.545H369.203V592H367.192ZM374.374 588.42V586.682L382.045 574.545H383.306V577.239H382.454L376.658 586.409V586.545H386.988V588.42H374.374ZM382.59 592V587.892V587.082V574.545H384.602V592H382.59ZM389.773 588.42V586.682L397.443 574.545H398.705V577.239H397.852L392.057 586.409V586.545H402.386V588.42H389.773ZM397.989 592V587.892V587.082V574.545H400V592H397.989Z" fill="white"/>
<path d="M191.83 958V952.682L204.256 941.176C205.313 940.153 206.199 939.233 206.915 938.415C207.642 937.597 208.193 936.795 208.568 936.011C208.943 935.216 209.131 934.358 209.131 933.438C209.131 932.415 208.898 931.534 208.432 930.795C207.966 930.045 207.33 929.472 206.523 929.074C205.716 928.665 204.801 928.46 203.778 928.46C202.71 928.46 201.778 928.676 200.983 929.108C200.188 929.54 199.574 930.159 199.142 930.966C198.71 931.773 198.494 932.733 198.494 933.847H191.489C191.489 931.562 192.006 929.58 193.04 927.898C194.074 926.216 195.523 924.915 197.386 923.994C199.25 923.074 201.398 922.614 203.83 922.614C206.33 922.614 208.506 923.057 210.358 923.943C212.222 924.818 213.67 926.034 214.705 927.591C215.739 929.148 216.256 930.932 216.256 932.943C216.256 934.261 215.994 935.562 215.472 936.847C214.96 938.131 214.045 939.557 212.727 941.125C211.409 942.682 209.551 944.551 207.153 946.733L202.057 951.727V951.966H216.716V958H191.83ZM235.751 958.767C232.82 958.756 230.297 958.034 228.183 956.602C226.081 955.17 224.462 953.097 223.325 950.381C222.2 947.665 221.643 944.398 221.655 940.58C221.655 936.773 222.217 933.528 223.342 930.847C224.479 928.165 226.098 926.125 228.2 924.727C230.314 923.318 232.831 922.614 235.751 922.614C238.672 922.614 241.183 923.318 243.286 924.727C245.399 926.136 247.024 928.182 248.161 930.864C249.297 933.534 249.859 936.773 249.848 940.58C249.848 944.409 249.28 947.682 248.143 950.398C247.018 953.114 245.405 955.187 243.303 956.619C241.2 958.051 238.683 958.767 235.751 958.767ZM235.751 952.648C237.751 952.648 239.348 951.642 240.541 949.631C241.734 947.619 242.325 944.602 242.314 940.58C242.314 937.932 242.041 935.727 241.496 933.966C240.962 932.205 240.2 930.881 239.212 929.994C238.234 929.108 237.081 928.665 235.751 928.665C233.763 928.665 232.172 929.659 230.979 931.648C229.786 933.636 229.183 936.614 229.172 940.58C229.172 943.261 229.439 945.5 229.973 947.295C230.518 949.08 231.286 950.42 232.274 951.318C233.263 952.205 234.422 952.648 235.751 952.648ZM255.111 958V952.682L267.537 941.176C268.594 940.153 269.48 939.233 270.196 938.415C270.923 937.597 271.474 936.795 271.849 936.011C272.224 935.216 272.412 934.358 272.412 933.438C272.412 932.415 272.179 931.534 271.713 930.795C271.247 930.045 270.611 929.472 269.804 929.074C268.997 928.665 268.082 928.46 267.06 928.46C265.991 928.46 265.06 928.676 264.264 929.108C263.469 929.54 262.855 930.159 262.423 930.966C261.991 931.773 261.776 932.733 261.776 933.847H254.77C254.77 931.562 255.287 929.58 256.321 927.898C257.355 926.216 258.804 924.915 260.668 923.994C262.531 923.074 264.679 922.614 267.111 922.614C269.611 922.614 271.787 923.057 273.639 923.943C275.503 924.818 276.952 926.034 277.986 927.591C279.02 929.148 279.537 930.932 279.537 932.943C279.537 934.261 279.276 935.562 278.753 936.847C278.241 938.131 277.327 939.557 276.009 941.125C274.69 942.682 272.832 944.551 270.435 946.733L265.338 951.727V951.966H279.997V958H255.111ZM298.249 958.477C295.703 958.477 293.436 958.04 291.447 957.165C289.47 956.278 287.908 955.062 286.76 953.517C285.624 951.96 285.038 950.165 285.004 948.131H292.436C292.482 948.983 292.76 949.733 293.271 950.381C293.794 951.017 294.487 951.511 295.351 951.864C296.214 952.216 297.186 952.392 298.266 952.392C299.391 952.392 300.385 952.193 301.249 951.795C302.112 951.398 302.788 950.847 303.277 950.142C303.766 949.437 304.01 948.625 304.01 947.705C304.01 946.773 303.749 945.949 303.226 945.233C302.714 944.506 301.976 943.937 301.01 943.528C300.055 943.119 298.919 942.915 297.601 942.915H294.345V937.494H297.601C298.714 937.494 299.697 937.301 300.55 936.915C301.413 936.528 302.084 935.994 302.561 935.312C303.038 934.619 303.277 933.812 303.277 932.892C303.277 932.017 303.067 931.25 302.646 930.591C302.237 929.92 301.658 929.398 300.908 929.023C300.169 928.648 299.305 928.46 298.317 928.46C297.317 928.46 296.402 928.642 295.572 929.006C294.743 929.358 294.078 929.864 293.578 930.523C293.078 931.182 292.811 931.955 292.777 932.841H285.703C285.737 930.83 286.311 929.057 287.425 927.523C288.538 925.989 290.038 924.79 291.925 923.926C293.822 923.051 295.964 922.614 298.351 922.614C300.76 922.614 302.868 923.051 304.675 923.926C306.482 924.801 307.885 925.983 308.885 927.472C309.896 928.949 310.396 930.608 310.385 932.449C310.396 934.403 309.788 936.034 308.561 937.341C307.345 938.648 305.76 939.477 303.805 939.83V940.102C306.374 940.432 308.328 941.324 309.669 942.778C311.021 944.222 311.692 946.028 311.68 948.199C311.692 950.188 311.118 951.955 309.959 953.5C308.811 955.045 307.226 956.261 305.203 957.148C303.18 958.034 300.862 958.477 298.249 958.477ZM332.259 921.455L321.009 963.25H314.753L326.003 921.455H332.259ZM335.689 958V952.682L348.115 941.176C349.172 940.153 350.058 939.233 350.774 938.415C351.501 937.597 352.053 936.795 352.428 936.011C352.803 935.216 352.99 934.358 352.99 933.438C352.99 932.415 352.757 931.534 352.291 930.795C351.825 930.045 351.189 929.472 350.382 929.074C349.575 928.665 348.661 928.46 347.638 928.46C346.57 928.46 345.638 928.676 344.842 929.108C344.047 929.54 343.433 930.159 343.001 930.966C342.57 931.773 342.354 932.733 342.354 933.847H335.348C335.348 931.562 335.865 929.58 336.899 927.898C337.933 926.216 339.382 924.915 341.246 923.994C343.109 923.074 345.257 922.614 347.689 922.614C350.189 922.614 352.365 923.057 354.217 923.943C356.081 924.818 357.53 926.034 358.564 927.591C359.598 929.148 360.115 930.932 360.115 932.943C360.115 934.261 359.854 935.562 359.331 936.847C358.82 938.131 357.905 939.557 356.587 941.125C355.268 942.682 353.411 944.551 351.013 946.733L345.916 951.727V951.966H360.575V958H335.689ZM379.611 958.767C376.679 958.756 374.156 958.034 372.043 956.602C369.94 955.17 368.321 953.097 367.185 950.381C366.06 947.665 365.503 944.398 365.514 940.58C365.514 936.773 366.077 933.528 367.202 930.847C368.338 928.165 369.957 926.125 372.06 924.727C374.173 923.318 376.69 922.614 379.611 922.614C382.531 922.614 385.043 923.318 387.145 924.727C389.259 926.136 390.884 928.182 392.02 930.864C393.156 933.534 393.719 936.773 393.707 940.58C393.707 944.409 393.139 947.682 392.003 950.398C390.878 953.114 389.264 955.187 387.162 956.619C385.06 958.051 382.543 958.767 379.611 958.767ZM379.611 952.648C381.611 952.648 383.207 951.642 384.401 949.631C385.594 947.619 386.185 944.602 386.173 940.58C386.173 937.932 385.901 935.727 385.355 933.966C384.821 932.205 384.06 930.881 383.071 929.994C382.094 929.108 380.94 928.665 379.611 928.665C377.622 928.665 376.031 929.659 374.838 931.648C373.645 933.636 373.043 936.614 373.031 940.58C373.031 943.261 373.298 945.5 373.832 947.295C374.378 949.08 375.145 950.42 376.134 951.318C377.122 952.205 378.281 952.648 379.611 952.648ZM398.97 958V952.682L411.396 941.176C412.453 940.153 413.339 939.233 414.055 938.415C414.783 937.597 415.334 936.795 415.709 936.011C416.084 935.216 416.271 934.358 416.271 933.438C416.271 932.415 416.038 931.534 415.572 930.795C415.107 930.045 414.47 929.472 413.663 929.074C412.857 928.665 411.942 928.46 410.919 928.46C409.851 928.46 408.919 928.676 408.124 929.108C407.328 929.54 406.714 930.159 406.283 930.966C405.851 931.773 405.635 932.733 405.635 933.847H398.629C398.629 931.562 399.146 929.58 400.18 927.898C401.214 926.216 402.663 924.915 404.527 923.994C406.391 923.074 408.538 922.614 410.97 922.614C413.47 922.614 415.646 923.057 417.499 923.943C419.362 924.818 420.811 926.034 421.845 927.591C422.879 929.148 423.396 930.932 423.396 932.943C423.396 934.261 423.135 935.562 422.612 936.847C422.101 938.131 421.186 939.557 419.868 941.125C418.55 942.682 416.692 944.551 414.294 946.733L409.197 951.727V951.966H423.857V958H398.97ZM427.926 951.864V946.051L442.5 923.091H447.511V931.136H444.545L435.358 945.676V945.949H456.068V951.864H427.926ZM444.682 958V950.091L444.818 947.517V923.091H451.739V958H444.682Z" fill="url(#paint1_linear_24_2)"/>
<path d="M23.8295 463H21.6136L28.0227 445.545H30.2045L36.6136 463H34.3977L29.1818 448.307H29.0455L23.8295 463ZM24.6477 456.182H33.5795V458.057H24.6477V456.182ZM41.071 455.125V463H39.0597V449.909H41.0028V451.955H41.1733C41.4801 451.29 41.946 450.756 42.571 450.352C43.196 449.943 44.0028 449.739 44.9915 449.739C45.8778 449.739 46.6534 449.92 47.3182 450.284C47.983 450.642 48.5 451.188 48.8693 451.92C49.2386 452.648 49.4233 453.568 49.4233 454.682V463H47.4119V454.818C47.4119 453.79 47.1449 452.989 46.6108 452.415C46.0767 451.835 45.3438 451.545 44.4119 451.545C43.7699 451.545 43.196 451.685 42.6903 451.963C42.1903 452.241 41.7955 452.648 41.5057 453.182C41.2159 453.716 41.071 454.364 41.071 455.125ZM56.951 463.307C56.1214 463.307 55.3686 463.151 54.6925 462.838C54.0163 462.52 53.4794 462.062 53.0817 461.466C52.6839 460.864 52.4851 460.136 52.4851 459.284C52.4851 458.534 52.6328 457.926 52.9283 457.46C53.2237 456.989 53.6186 456.619 54.1129 456.352C54.6072 456.085 55.1527 455.886 55.7493 455.756C56.3516 455.619 56.9567 455.511 57.5646 455.432C58.3601 455.33 59.005 455.253 59.4993 455.202C59.9993 455.145 60.3629 455.051 60.5902 454.92C60.8232 454.79 60.9396 454.562 60.9396 454.239V454.17C60.9396 453.33 60.7095 452.676 60.2493 452.21C59.7947 451.744 59.1044 451.511 58.1783 451.511C57.218 451.511 56.4652 451.722 55.9197 452.142C55.3743 452.562 54.9908 453.011 54.7692 453.489L52.8601 452.807C53.201 452.011 53.6555 451.392 54.2237 450.949C54.7976 450.5 55.4226 450.187 56.0987 450.011C56.7805 449.83 57.451 449.739 58.1101 449.739C58.5305 449.739 59.0135 449.79 59.5589 449.892C60.1101 449.989 60.6413 450.19 61.1527 450.497C61.6697 450.804 62.0987 451.267 62.4396 451.886C62.7805 452.506 62.951 453.335 62.951 454.375V463H60.9396V461.227H60.8374C60.701 461.511 60.4737 461.815 60.1555 462.139C59.8374 462.463 59.4141 462.739 58.8857 462.966C58.3572 463.193 57.7124 463.307 56.951 463.307ZM57.2578 461.5C58.0533 461.5 58.7237 461.344 59.2692 461.031C59.8203 460.719 60.2351 460.315 60.5135 459.821C60.7976 459.327 60.9396 458.807 60.9396 458.261V456.42C60.8544 456.523 60.6669 456.616 60.3771 456.702C60.093 456.781 59.7635 456.852 59.3885 456.915C59.0192 456.972 58.6584 457.023 58.3061 457.068C57.9595 457.108 57.6783 457.142 57.4624 457.17C56.9396 457.239 56.451 457.349 55.9964 457.503C55.5476 457.651 55.1839 457.875 54.9055 458.176C54.6328 458.472 54.4964 458.875 54.4964 459.386C54.4964 460.085 54.755 460.614 55.272 460.972C55.7947 461.324 56.4567 461.5 57.2578 461.5ZM68.6335 445.545V463H66.6222V445.545H68.6335ZM72.3175 463V449.909H74.3288V463H72.3175ZM73.3402 447.727C72.9482 447.727 72.6101 447.594 72.326 447.327C72.0476 447.06 71.9084 446.739 71.9084 446.364C71.9084 445.989 72.0476 445.668 72.326 445.401C72.6101 445.134 72.9482 445 73.3402 445C73.7322 445 74.0675 445.134 74.3459 445.401C74.63 445.668 74.772 445.989 74.772 446.364C74.772 446.739 74.63 447.06 74.3459 447.327C74.0675 447.594 73.7322 447.727 73.3402 447.727ZM87.2855 452.841L85.4787 453.352C85.3651 453.051 85.1974 452.759 84.9759 452.474C84.7599 452.185 84.4645 451.946 84.0895 451.759C83.7145 451.571 83.2344 451.477 82.6491 451.477C81.848 451.477 81.1804 451.662 80.6463 452.031C80.1179 452.395 79.8537 452.858 79.8537 453.42C79.8537 453.92 80.0355 454.315 80.3991 454.605C80.7628 454.895 81.331 455.136 82.1037 455.33L84.0469 455.807C85.2173 456.091 86.0895 456.526 86.6634 457.111C87.2372 457.69 87.5241 458.437 87.5241 459.352C87.5241 460.102 87.3082 460.773 86.8764 461.364C86.4503 461.955 85.8537 462.42 85.0866 462.761C84.3196 463.102 83.4276 463.273 82.4105 463.273C81.0753 463.273 79.9702 462.983 79.0952 462.403C78.2202 461.824 77.6662 460.977 77.4332 459.864L79.3423 459.386C79.5241 460.091 79.8679 460.619 80.3736 460.972C80.8849 461.324 81.5526 461.5 82.3764 461.5C83.3139 461.5 84.0582 461.301 84.6094 460.903C85.1662 460.5 85.4446 460.017 85.4446 459.455C85.4446 459 85.2855 458.619 84.9673 458.312C84.6491 458 84.1605 457.767 83.5014 457.614L81.3196 457.102C80.1207 456.818 79.2401 456.378 78.6776 455.781C78.1207 455.179 77.8423 454.426 77.8423 453.523C77.8423 452.784 78.0497 452.131 78.4645 451.562C78.8849 450.994 79.456 450.548 80.1776 450.224C80.9048 449.901 81.7287 449.739 82.6491 449.739C83.9446 449.739 84.9616 450.023 85.7003 450.591C86.4446 451.159 86.973 451.909 87.2855 452.841ZM96.0405 463.273C94.7791 463.273 93.6911 462.994 92.7763 462.438C91.8672 461.875 91.1655 461.091 90.6712 460.085C90.1825 459.074 89.9382 457.898 89.9382 456.557C89.9382 455.216 90.1825 454.034 90.6712 453.011C91.1655 451.983 91.853 451.182 92.7337 450.608C93.62 450.028 94.6541 449.739 95.8359 449.739C96.5178 449.739 97.1911 449.852 97.8558 450.08C98.5206 450.307 99.1257 450.676 99.6712 451.188C100.217 451.693 100.651 452.364 100.975 453.199C101.299 454.034 101.461 455.062 101.461 456.284V457.136H91.37V455.398H99.4155C99.4155 454.659 99.2678 454 98.9723 453.42C98.6825 452.841 98.2678 452.384 97.728 452.048C97.1939 451.713 96.5632 451.545 95.8359 451.545C95.0348 451.545 94.3416 451.744 93.7564 452.142C93.1768 452.534 92.7308 453.045 92.4183 453.676C92.1058 454.307 91.9496 454.983 91.9496 455.705V456.864C91.9496 457.852 92.12 458.69 92.4609 459.378C92.8075 460.06 93.2876 460.58 93.9013 460.938C94.5149 461.29 95.228 461.466 96.0405 461.466C96.5689 461.466 97.0462 461.392 97.4723 461.244C97.9041 461.091 98.2763 460.864 98.5888 460.562C98.9013 460.256 99.1428 459.875 99.3132 459.42L101.256 459.966C101.052 460.625 100.708 461.205 100.225 461.705C99.7422 462.199 99.1456 462.585 98.4354 462.864C97.7251 463.136 96.9268 463.273 96.0405 463.273ZM116.759 463.273C115.498 463.273 114.41 462.994 113.495 462.438C112.586 461.875 111.884 461.091 111.39 460.085C110.901 459.074 110.657 457.898 110.657 456.557C110.657 455.216 110.901 454.034 111.39 453.011C111.884 451.983 112.572 451.182 113.452 450.608C114.339 450.028 115.373 449.739 116.555 449.739C117.237 449.739 117.91 449.852 118.575 450.08C119.239 450.307 119.844 450.676 120.39 451.188C120.935 451.693 121.37 452.364 121.694 453.199C122.018 454.034 122.18 455.062 122.18 456.284V457.136H112.089V455.398H120.134C120.134 454.659 119.987 454 119.691 453.42C119.401 452.841 118.987 452.384 118.447 452.048C117.913 451.713 117.282 451.545 116.555 451.545C115.754 451.545 115.06 451.744 114.475 452.142C113.896 452.534 113.45 453.045 113.137 453.676C112.825 454.307 112.668 454.983 112.668 455.705V456.864C112.668 457.852 112.839 458.69 113.18 459.378C113.526 460.06 114.006 460.58 114.62 460.938C115.234 461.29 115.947 461.466 116.759 461.466C117.288 461.466 117.765 461.392 118.191 461.244C118.623 461.091 118.995 460.864 119.308 460.562C119.62 460.256 119.862 459.875 120.032 459.42L121.975 459.966C121.771 460.625 121.427 461.205 120.944 461.705C120.461 462.199 119.864 462.585 119.154 462.864C118.444 463.136 117.646 463.273 116.759 463.273ZM137.648 463H132.262V445.545H137.887C139.58 445.545 141.029 445.895 142.234 446.594C143.438 447.287 144.362 448.284 145.004 449.585C145.646 450.881 145.967 452.432 145.967 454.239C145.967 456.057 145.643 457.622 144.995 458.935C144.347 460.241 143.404 461.247 142.165 461.952C140.927 462.651 139.421 463 137.648 463ZM134.376 461.125H137.512C138.955 461.125 140.151 460.847 141.1 460.29C142.049 459.733 142.756 458.94 143.222 457.912C143.688 456.884 143.921 455.659 143.921 454.239C143.921 452.83 143.691 451.616 143.231 450.599C142.771 449.577 142.083 448.793 141.168 448.247C140.254 447.696 139.114 447.42 137.751 447.42H134.376V461.125ZM154.728 463.273C153.467 463.273 152.379 462.994 151.464 462.438C150.555 461.875 149.853 461.091 149.359 460.085C148.87 459.074 148.626 457.898 148.626 456.557C148.626 455.216 148.87 454.034 149.359 453.011C149.853 451.983 150.54 451.182 151.421 450.608C152.308 450.028 153.342 449.739 154.523 449.739C155.205 449.739 155.879 449.852 156.543 450.08C157.208 450.307 157.813 450.676 158.359 451.188C158.904 451.693 159.339 452.364 159.663 453.199C159.987 454.034 160.148 455.062 160.148 456.284V457.136H150.058V455.398H158.103C158.103 454.659 157.955 454 157.66 453.42C157.37 452.841 156.955 452.384 156.415 452.048C155.881 451.713 155.251 451.545 154.523 451.545C153.722 451.545 153.029 451.744 152.444 452.142C151.864 452.534 151.418 453.045 151.106 453.676C150.793 454.307 150.637 454.983 150.637 455.705V456.864C150.637 457.852 150.808 458.69 151.148 459.378C151.495 460.06 151.975 460.58 152.589 460.938C153.202 461.29 153.915 461.466 154.728 461.466C155.256 461.466 155.734 461.392 156.16 461.244C156.592 461.091 156.964 460.864 157.276 460.562C157.589 460.256 157.83 459.875 158.001 459.42L159.944 459.966C159.739 460.625 159.396 461.205 158.913 461.705C158.43 462.199 157.833 462.585 157.123 462.864C156.413 463.136 155.614 463.273 154.728 463.273ZM172.481 452.841L170.674 453.352C170.56 453.051 170.393 452.759 170.171 452.474C169.955 452.185 169.66 451.946 169.285 451.759C168.91 451.571 168.43 451.477 167.844 451.477C167.043 451.477 166.376 451.662 165.842 452.031C165.313 452.395 165.049 452.858 165.049 453.42C165.049 453.92 165.231 454.315 165.594 454.605C165.958 454.895 166.526 455.136 167.299 455.33L169.242 455.807C170.413 456.091 171.285 456.526 171.859 457.111C172.433 457.69 172.719 458.437 172.719 459.352C172.719 460.102 172.504 460.773 172.072 461.364C171.646 461.955 171.049 462.42 170.282 462.761C169.515 463.102 168.623 463.273 167.606 463.273C166.271 463.273 165.165 462.983 164.29 462.403C163.415 461.824 162.862 460.977 162.629 459.864L164.538 459.386C164.719 460.091 165.063 460.619 165.569 460.972C166.08 461.324 166.748 461.5 167.572 461.5C168.509 461.5 169.254 461.301 169.805 460.903C170.362 460.5 170.64 460.017 170.64 459.455C170.64 459 170.481 458.619 170.163 458.312C169.844 458 169.356 457.767 168.697 457.614L166.515 457.102C165.316 456.818 164.435 456.378 163.873 455.781C163.316 455.179 163.038 454.426 163.038 453.523C163.038 452.784 163.245 452.131 163.66 451.562C164.08 450.994 164.651 450.548 165.373 450.224C166.1 449.901 166.924 449.739 167.844 449.739C169.14 449.739 170.157 450.023 170.896 450.591C171.64 451.159 172.168 451.909 172.481 452.841ZM181.236 463.273C179.974 463.273 178.886 462.994 177.972 462.438C177.062 461.875 176.361 461.091 175.866 460.085C175.378 459.074 175.134 457.898 175.134 456.557C175.134 455.216 175.378 454.034 175.866 453.011C176.361 451.983 177.048 451.182 177.929 450.608C178.815 450.028 179.849 449.739 181.031 449.739C181.713 449.739 182.386 449.852 183.051 450.08C183.716 450.307 184.321 450.676 184.866 451.188C185.412 451.693 185.847 452.364 186.17 453.199C186.494 454.034 186.656 455.062 186.656 456.284V457.136H176.565V455.398H184.611C184.611 454.659 184.463 454 184.168 453.42C183.878 452.841 183.463 452.384 182.923 452.048C182.389 451.713 181.759 451.545 181.031 451.545C180.23 451.545 179.537 451.744 178.952 452.142C178.372 452.534 177.926 453.045 177.614 453.676C177.301 454.307 177.145 454.983 177.145 455.705V456.864C177.145 457.852 177.315 458.69 177.656 459.378C178.003 460.06 178.483 460.58 179.097 460.938C179.71 461.29 180.423 461.466 181.236 461.466C181.764 461.466 182.241 461.392 182.668 461.244C183.099 461.091 183.472 460.864 183.784 460.562C184.097 460.256 184.338 459.875 184.509 459.42L186.452 459.966C186.247 460.625 185.903 461.205 185.42 461.705C184.938 462.199 184.341 462.585 183.631 462.864C182.92 463.136 182.122 463.273 181.236 463.273ZM191.727 455.125V463H189.716V449.909H191.659V451.955H191.83C192.136 451.29 192.602 450.756 193.227 450.352C193.852 449.943 194.659 449.739 195.648 449.739C196.534 449.739 197.31 449.92 197.974 450.284C198.639 450.642 199.156 451.188 199.526 451.92C199.895 452.648 200.08 453.568 200.08 454.682V463H198.068V454.818C198.068 453.79 197.801 452.989 197.267 452.415C196.733 451.835 196 451.545 195.068 451.545C194.426 451.545 193.852 451.685 193.347 451.963C192.847 452.241 192.452 452.648 192.162 453.182C191.872 453.716 191.727 454.364 191.727 455.125ZM213.991 449.909L209.15 463H207.104L202.263 449.909H204.445L208.059 460.341H208.195L211.809 449.909H213.991ZM221.495 463.273C220.313 463.273 219.276 462.991 218.384 462.429C217.498 461.866 216.805 461.08 216.305 460.068C215.81 459.057 215.563 457.875 215.563 456.523C215.563 455.159 215.81 453.969 216.305 452.952C216.805 451.935 217.498 451.145 218.384 450.582C219.276 450.02 220.313 449.739 221.495 449.739C222.677 449.739 223.711 450.02 224.597 450.582C225.489 451.145 226.183 451.935 226.677 452.952C227.177 453.969 227.427 455.159 227.427 456.523C227.427 457.875 227.177 459.057 226.677 460.068C226.183 461.08 225.489 461.866 224.597 462.429C223.711 462.991 222.677 463.273 221.495 463.273ZM221.495 461.466C222.393 461.466 223.131 461.236 223.711 460.776C224.29 460.315 224.719 459.71 224.998 458.96C225.276 458.21 225.415 457.398 225.415 456.523C225.415 455.648 225.276 454.832 224.998 454.077C224.719 453.321 224.29 452.71 223.711 452.244C223.131 451.778 222.393 451.545 221.495 451.545C220.597 451.545 219.859 451.778 219.279 452.244C218.7 452.71 218.271 453.321 217.992 454.077C217.714 454.832 217.575 455.648 217.575 456.523C217.575 457.398 217.714 458.21 217.992 458.96C218.271 459.71 218.7 460.315 219.279 460.776C219.859 461.236 220.597 461.466 221.495 461.466ZM232.509 445.545V463H230.497V445.545H232.509ZM246.897 449.909L242.056 463H240.011L235.17 449.909H237.352L240.965 460.341H241.102L244.715 449.909H246.897ZM249.552 463V449.909H251.563V463H249.552ZM250.575 447.727C250.183 447.727 249.844 447.594 249.56 447.327C249.282 447.06 249.143 446.739 249.143 446.364C249.143 445.989 249.282 445.668 249.56 445.401C249.844 445.134 250.183 445 250.575 445C250.967 445 251.302 445.134 251.58 445.401C251.864 445.668 252.006 445.989 252.006 446.364C252.006 446.739 251.864 447.06 251.58 447.327C251.302 447.594 250.967 447.727 250.575 447.727ZM255.247 463V449.909H257.19V451.955H257.361C257.634 451.256 258.074 450.713 258.682 450.327C259.29 449.935 260.02 449.739 260.872 449.739C261.736 449.739 262.455 449.935 263.028 450.327C263.608 450.713 264.06 451.256 264.384 451.955H264.52C264.855 451.278 265.358 450.741 266.028 450.344C266.699 449.94 267.503 449.739 268.44 449.739C269.611 449.739 270.568 450.105 271.312 450.838C272.057 451.565 272.429 452.699 272.429 454.239V463H270.418V454.239C270.418 453.273 270.153 452.582 269.625 452.168C269.097 451.753 268.474 451.545 267.759 451.545C266.838 451.545 266.125 451.824 265.619 452.381C265.114 452.932 264.861 453.631 264.861 454.477V463H262.815V454.034C262.815 453.29 262.574 452.69 262.091 452.236C261.608 451.776 260.986 451.545 260.224 451.545C259.702 451.545 259.213 451.685 258.759 451.963C258.31 452.241 257.946 452.628 257.668 453.122C257.395 453.611 257.259 454.176 257.259 454.818V463H255.247ZM281.595 463.273C280.334 463.273 279.246 462.994 278.331 462.438C277.422 461.875 276.72 461.091 276.226 460.085C275.737 459.074 275.493 457.898 275.493 456.557C275.493 455.216 275.737 454.034 276.226 453.011C276.72 451.983 277.408 451.182 278.288 450.608C279.175 450.028 280.209 449.739 281.391 449.739C282.072 449.739 282.746 449.852 283.411 450.08C284.075 450.307 284.68 450.676 285.226 451.188C285.771 451.693 286.206 452.364 286.53 453.199C286.854 454.034 287.016 455.062 287.016 456.284V457.136H276.925V455.398H284.97C284.97 454.659 284.822 454 284.527 453.42C284.237 452.841 283.822 452.384 283.283 452.048C282.749 451.713 282.118 451.545 281.391 451.545C280.589 451.545 279.896 451.744 279.311 452.142C278.732 452.534 278.286 453.045 277.973 453.676C277.661 454.307 277.504 454.983 277.504 455.705V456.864C277.504 457.852 277.675 458.69 278.016 459.378C278.362 460.06 278.842 460.58 279.456 460.938C280.07 461.29 280.783 461.466 281.595 461.466C282.124 461.466 282.601 461.392 283.027 461.244C283.459 461.091 283.831 460.864 284.143 460.562C284.456 460.256 284.697 459.875 284.868 459.42L286.811 459.966C286.607 460.625 286.263 461.205 285.78 461.705C285.297 462.199 284.7 462.585 283.99 462.864C283.28 463.136 282.482 463.273 281.595 463.273ZM292.087 455.125V463H290.075V449.909H292.018V451.955H292.189C292.496 451.29 292.962 450.756 293.587 450.352C294.212 449.943 295.018 449.739 296.007 449.739C296.893 449.739 297.669 449.92 298.334 450.284C298.999 450.642 299.516 451.188 299.885 451.92C300.254 452.648 300.439 453.568 300.439 454.682V463H298.428V454.818C298.428 453.79 298.161 452.989 297.626 452.415C297.092 451.835 296.359 451.545 295.428 451.545C294.786 451.545 294.212 451.685 293.706 451.963C293.206 452.241 292.811 452.648 292.521 453.182C292.232 453.716 292.087 454.364 292.087 455.125ZM309.808 449.909V451.614H303.023V449.909H309.808ZM305.001 446.773H307.012V459.25C307.012 459.818 307.094 460.244 307.259 460.528C307.43 460.807 307.646 460.994 307.907 461.091C308.174 461.182 308.455 461.227 308.751 461.227C308.972 461.227 309.154 461.216 309.296 461.193C309.438 461.165 309.552 461.142 309.637 461.125L310.046 462.932C309.91 462.983 309.719 463.034 309.475 463.085C309.231 463.142 308.921 463.17 308.546 463.17C307.978 463.17 307.421 463.048 306.876 462.804C306.336 462.56 305.887 462.188 305.529 461.688C305.177 461.188 305.001 460.557 305.001 459.795V446.773ZM318.011 463.273C316.829 463.273 315.792 462.991 314.9 462.429C314.013 461.866 313.32 461.08 312.82 460.068C312.326 459.057 312.079 457.875 312.079 456.523C312.079 455.159 312.326 453.969 312.82 452.952C313.32 451.935 314.013 451.145 314.9 450.582C315.792 450.02 316.829 449.739 318.011 449.739C319.192 449.739 320.227 450.02 321.113 450.582C322.005 451.145 322.698 451.935 323.192 452.952C323.692 453.969 323.942 455.159 323.942 456.523C323.942 457.875 323.692 459.057 323.192 460.068C322.698 461.08 322.005 461.866 321.113 462.429C320.227 462.991 319.192 463.273 318.011 463.273ZM318.011 461.466C318.908 461.466 319.647 461.236 320.227 460.776C320.806 460.315 321.235 459.71 321.513 458.96C321.792 458.21 321.931 457.398 321.931 456.523C321.931 455.648 321.792 454.832 321.513 454.077C321.235 453.321 320.806 452.71 320.227 452.244C319.647 451.778 318.908 451.545 318.011 451.545C317.113 451.545 316.374 451.778 315.795 452.244C315.215 452.71 314.786 453.321 314.508 454.077C314.229 454.832 314.09 455.648 314.09 456.523C314.09 457.398 314.229 458.21 314.508 458.96C314.786 459.71 315.215 460.315 315.795 460.776C316.374 461.236 317.113 461.466 318.011 461.466ZM338.706 463.273C337.615 463.273 336.652 462.997 335.817 462.446C334.982 461.889 334.328 461.105 333.857 460.094C333.385 459.077 333.149 457.875 333.149 456.489C333.149 455.114 333.385 453.92 333.857 452.909C334.328 451.898 334.984 451.116 335.825 450.565C336.666 450.014 337.638 449.739 338.74 449.739C339.592 449.739 340.266 449.881 340.76 450.165C341.26 450.443 341.641 450.761 341.902 451.119C342.169 451.472 342.376 451.761 342.524 451.989H342.695V445.545H344.706V463H342.763V460.989H342.524C342.376 461.227 342.166 461.528 341.893 461.892C341.621 462.25 341.232 462.571 340.726 462.855C340.22 463.134 339.547 463.273 338.706 463.273ZM338.979 461.466C339.786 461.466 340.467 461.256 341.024 460.835C341.581 460.409 342.004 459.821 342.294 459.071C342.584 458.315 342.729 457.443 342.729 456.455C342.729 455.477 342.587 454.622 342.303 453.889C342.018 453.151 341.598 452.577 341.041 452.168C340.484 451.753 339.797 451.545 338.979 451.545C338.126 451.545 337.416 451.764 336.848 452.202C336.286 452.634 335.862 453.222 335.578 453.966C335.3 454.705 335.161 455.534 335.161 456.455C335.161 457.386 335.303 458.233 335.587 458.994C335.876 459.75 336.303 460.352 336.865 460.801C337.433 461.244 338.138 461.466 338.979 461.466ZM354.158 463.273C352.896 463.273 351.808 462.994 350.893 462.438C349.984 461.875 349.283 461.091 348.788 460.085C348.3 459.074 348.055 457.898 348.055 456.557C348.055 455.216 348.3 454.034 348.788 453.011C349.283 451.983 349.97 451.182 350.851 450.608C351.737 450.028 352.771 449.739 353.953 449.739C354.635 449.739 355.308 449.852 355.973 450.08C356.638 450.307 357.243 450.676 357.788 451.188C358.334 451.693 358.768 452.364 359.092 453.199C359.416 454.034 359.578 455.062 359.578 456.284V457.136H349.487V455.398H357.533C357.533 454.659 357.385 454 357.089 453.42C356.8 452.841 356.385 452.384 355.845 452.048C355.311 451.713 354.68 451.545 353.953 451.545C353.152 451.545 352.459 451.744 351.874 452.142C351.294 452.534 350.848 453.045 350.536 453.676C350.223 454.307 350.067 454.983 350.067 455.705V456.864C350.067 457.852 350.237 458.69 350.578 459.378C350.925 460.06 351.405 460.58 352.018 460.938C352.632 461.29 353.345 461.466 354.158 461.466C354.686 461.466 355.163 461.392 355.589 461.244C356.021 461.091 356.393 460.864 356.706 460.562C357.018 460.256 357.26 459.875 357.43 459.42L359.374 459.966C359.169 460.625 358.825 461.205 358.342 461.705C357.859 462.199 357.263 462.585 356.553 462.864C355.842 463.136 355.044 463.273 354.158 463.273ZM379.206 449.909C379.104 449.045 378.689 448.375 377.962 447.898C377.234 447.42 376.342 447.182 375.286 447.182C374.513 447.182 373.837 447.307 373.257 447.557C372.683 447.807 372.234 448.151 371.911 448.588C371.592 449.026 371.433 449.523 371.433 450.08C371.433 450.545 371.544 450.946 371.766 451.281C371.993 451.611 372.283 451.886 372.635 452.108C372.987 452.324 373.357 452.503 373.743 452.645C374.129 452.781 374.484 452.892 374.808 452.977L376.581 453.455C377.036 453.574 377.541 453.739 378.098 453.949C378.661 454.159 379.197 454.446 379.709 454.81C380.226 455.168 380.652 455.628 380.987 456.19C381.322 456.753 381.49 457.443 381.49 458.261C381.49 459.205 381.243 460.057 380.749 460.818C380.26 461.58 379.544 462.185 378.601 462.634C377.663 463.082 376.524 463.307 375.183 463.307C373.933 463.307 372.851 463.105 371.936 462.702C371.027 462.298 370.311 461.736 369.788 461.014C369.271 460.293 368.979 459.455 368.911 458.5H371.092C371.149 459.159 371.371 459.705 371.757 460.136C372.149 460.562 372.643 460.881 373.24 461.091C373.842 461.295 374.49 461.398 375.183 461.398C375.99 461.398 376.714 461.267 377.357 461.006C377.999 460.739 378.507 460.369 378.882 459.898C379.257 459.42 379.445 458.864 379.445 458.227C379.445 457.648 379.283 457.176 378.959 456.812C378.635 456.449 378.209 456.153 377.68 455.926C377.152 455.699 376.581 455.5 375.967 455.33L373.82 454.716C372.456 454.324 371.376 453.764 370.581 453.037C369.786 452.31 369.388 451.358 369.388 450.182C369.388 449.205 369.652 448.352 370.18 447.625C370.714 446.892 371.43 446.324 372.328 445.92C373.232 445.511 374.24 445.307 375.354 445.307C376.479 445.307 377.479 445.509 378.354 445.912C379.229 446.31 379.922 446.855 380.433 447.548C380.95 448.241 381.223 449.028 381.251 449.909H379.206ZM384.692 463V449.909H386.704V463H384.692ZM385.715 447.727C385.323 447.727 384.985 447.594 384.701 447.327C384.423 447.06 384.283 446.739 384.283 446.364C384.283 445.989 384.423 445.668 384.701 445.401C384.985 445.134 385.323 445 385.715 445C386.107 445 386.442 445.134 386.721 445.401C387.005 445.668 387.147 445.989 387.147 446.364C387.147 446.739 387.005 447.06 386.721 447.327C386.442 447.594 386.107 447.727 385.715 447.727ZM399.661 452.841L397.854 453.352C397.74 453.051 397.572 452.759 397.351 452.474C397.135 452.185 396.839 451.946 396.464 451.759C396.089 451.571 395.609 451.477 395.024 451.477C394.223 451.477 393.555 451.662 393.021 452.031C392.493 452.395 392.229 452.858 392.229 453.42C392.229 453.92 392.411 454.315 392.774 454.605C393.138 454.895 393.706 455.136 394.479 455.33L396.422 455.807C397.592 456.091 398.464 456.526 399.038 457.111C399.612 457.69 399.899 458.437 399.899 459.352C399.899 460.102 399.683 460.773 399.251 461.364C398.825 461.955 398.229 462.42 397.462 462.761C396.695 463.102 395.803 463.273 394.786 463.273C393.45 463.273 392.345 462.983 391.47 462.403C390.595 461.824 390.041 460.977 389.808 459.864L391.717 459.386C391.899 460.091 392.243 460.619 392.749 460.972C393.26 461.324 393.928 461.5 394.751 461.5C395.689 461.5 396.433 461.301 396.984 460.903C397.541 460.5 397.82 460.017 397.82 459.455C397.82 459 397.661 458.619 397.342 458.312C397.024 458 396.536 457.767 395.876 457.614L393.695 457.102C392.496 456.818 391.615 456.378 391.053 455.781C390.496 455.179 390.217 454.426 390.217 453.523C390.217 452.784 390.425 452.131 390.839 451.562C391.26 450.994 391.831 450.548 392.553 450.224C393.28 449.901 394.104 449.739 395.024 449.739C396.32 449.739 397.337 450.023 398.075 450.591C398.82 451.159 399.348 451.909 399.661 452.841ZM408.62 449.909V451.614H401.836V449.909H408.62ZM403.813 446.773H405.825V459.25C405.825 459.818 405.907 460.244 406.072 460.528C406.242 460.807 406.458 460.994 406.719 461.091C406.987 461.182 407.268 461.227 407.563 461.227C407.785 461.227 407.967 461.216 408.109 461.193C408.251 461.165 408.364 461.142 408.45 461.125L408.859 462.932C408.722 462.983 408.532 463.034 408.288 463.085C408.043 463.142 407.734 463.17 407.359 463.17C406.79 463.17 406.234 463.048 405.688 462.804C405.148 462.56 404.7 462.188 404.342 461.688C403.989 461.188 403.813 460.557 403.813 459.795V446.773ZM416.994 463.273C415.732 463.273 414.644 462.994 413.729 462.438C412.82 461.875 412.119 461.091 411.624 460.085C411.136 459.074 410.891 457.898 410.891 456.557C410.891 455.216 411.136 454.034 411.624 453.011C412.119 451.983 412.806 451.182 413.687 450.608C414.573 450.028 415.607 449.739 416.789 449.739C417.471 449.739 418.144 449.852 418.809 450.08C419.474 450.307 420.079 450.676 420.624 451.188C421.17 451.693 421.604 452.364 421.928 453.199C422.252 454.034 422.414 455.062 422.414 456.284V457.136H412.323V455.398H420.369C420.369 454.659 420.221 454 419.925 453.42C419.636 452.841 419.221 452.384 418.681 452.048C418.147 451.713 417.516 451.545 416.789 451.545C415.988 451.545 415.295 451.744 414.71 452.142C414.13 452.534 413.684 453.045 413.371 453.676C413.059 454.307 412.903 454.983 412.903 455.705V456.864C412.903 457.852 413.073 458.69 413.414 459.378C413.761 460.06 414.241 460.58 414.854 460.938C415.468 461.29 416.181 461.466 416.994 461.466C417.522 461.466 417.999 461.392 418.425 461.244C418.857 461.091 419.229 460.864 419.542 460.562C419.854 460.256 420.096 459.875 420.266 459.42L422.21 459.966C422.005 460.625 421.661 461.205 421.178 461.705C420.695 462.199 420.099 462.585 419.388 462.864C418.678 463.136 417.88 463.273 416.994 463.273ZM425.474 463V449.909H427.417V451.955H427.587C427.86 451.256 428.3 450.713 428.908 450.327C429.516 449.935 430.246 449.739 431.099 449.739C431.962 449.739 432.681 449.935 433.255 450.327C433.835 450.713 434.286 451.256 434.61 451.955H434.746C435.082 451.278 435.585 450.741 436.255 450.344C436.925 449.94 437.729 449.739 438.667 449.739C439.837 449.739 440.795 450.105 441.539 450.838C442.283 451.565 442.656 452.699 442.656 454.239V463H440.644V454.239C440.644 453.273 440.38 452.582 439.852 452.168C439.323 451.753 438.701 451.545 437.985 451.545C437.065 451.545 436.352 451.824 435.846 452.381C435.34 452.932 435.087 453.631 435.087 454.477V463H433.042V454.034C433.042 453.29 432.8 452.69 432.317 452.236C431.835 451.776 431.212 451.545 430.451 451.545C429.928 451.545 429.44 451.685 428.985 451.963C428.536 452.241 428.173 452.628 427.894 453.122C427.621 453.611 427.485 454.176 427.485 454.818V463H425.474ZM450.185 463.307C449.356 463.307 448.603 463.151 447.927 462.838C447.251 462.52 446.714 462.062 446.316 461.466C445.918 460.864 445.719 460.136 445.719 459.284C445.719 458.534 445.867 457.926 446.163 457.46C446.458 456.989 446.853 456.619 447.347 456.352C447.842 456.085 448.387 455.886 448.984 455.756C449.586 455.619 450.191 455.511 450.799 455.432C451.594 455.33 452.239 455.253 452.734 455.202C453.234 455.145 453.597 455.051 453.825 454.92C454.058 454.79 454.174 454.562 454.174 454.239V454.17C454.174 453.33 453.944 452.676 453.484 452.21C453.029 451.744 452.339 451.511 451.413 451.511C450.452 451.511 449.7 451.722 449.154 452.142C448.609 452.562 448.225 453.011 448.004 453.489L446.094 452.807C446.435 452.011 446.89 451.392 447.458 450.949C448.032 450.5 448.657 450.187 449.333 450.011C450.015 449.83 450.685 449.739 451.344 449.739C451.765 449.739 452.248 449.79 452.793 449.892C453.344 449.989 453.876 450.19 454.387 450.497C454.904 450.804 455.333 451.267 455.674 451.886C456.015 452.506 456.185 453.335 456.185 454.375V463H454.174V461.227H454.072C453.935 461.511 453.708 461.815 453.39 462.139C453.072 462.463 452.648 462.739 452.12 462.966C451.592 463.193 450.947 463.307 450.185 463.307ZM450.492 461.5C451.288 461.5 451.958 461.344 452.504 461.031C453.055 460.719 453.469 460.315 453.748 459.821C454.032 459.327 454.174 458.807 454.174 458.261V456.42C454.089 456.523 453.901 456.616 453.612 456.702C453.327 456.781 452.998 456.852 452.623 456.915C452.254 456.972 451.893 457.023 451.54 457.068C451.194 457.108 450.913 457.142 450.697 457.17C450.174 457.239 449.685 457.349 449.231 457.503C448.782 457.651 448.418 457.875 448.14 458.176C447.867 458.472 447.731 458.875 447.731 459.386C447.731 460.085 447.989 460.614 448.506 460.972C449.029 461.324 449.691 461.5 450.492 461.5Z" fill="white"/>
<path d="M133.065 488.545V506H130.253L122.028 494.111H121.884V506H118.722V488.545H121.551L129.767 500.443H129.92V488.545H133.065ZM138.752 506H135.377L141.522 488.545H145.425L151.579 506H148.204L143.542 492.125H143.406L138.752 506ZM138.863 499.156H148.067V501.696H138.863V499.156ZM163.082 493.344C163.003 492.599 162.668 492.02 162.077 491.605C161.491 491.19 160.73 490.983 159.793 490.983C159.134 490.983 158.568 491.082 158.097 491.281C157.625 491.48 157.264 491.75 157.014 492.091C156.764 492.432 156.636 492.821 156.631 493.259C156.631 493.622 156.713 493.937 156.878 494.205C157.048 494.472 157.278 494.699 157.568 494.886C157.858 495.068 158.179 495.222 158.531 495.347C158.884 495.472 159.239 495.577 159.597 495.662L161.233 496.071C161.892 496.224 162.526 496.432 163.134 496.693C163.747 496.955 164.295 497.284 164.778 497.682C165.267 498.08 165.653 498.56 165.938 499.122C166.222 499.685 166.364 500.344 166.364 501.099C166.364 502.122 166.102 503.023 165.58 503.801C165.057 504.574 164.301 505.179 163.312 505.616C162.33 506.048 161.139 506.264 159.741 506.264C158.384 506.264 157.205 506.054 156.205 505.634C155.21 505.213 154.432 504.599 153.869 503.793C153.313 502.986 153.011 502.003 152.966 500.844H156.077C156.122 501.452 156.31 501.957 156.639 502.361C156.969 502.764 157.398 503.065 157.926 503.264C158.46 503.463 159.057 503.562 159.716 503.562C160.403 503.562 161.006 503.46 161.523 503.256C162.045 503.045 162.455 502.756 162.75 502.386C163.045 502.011 163.196 501.574 163.202 501.074C163.196 500.619 163.063 500.244 162.801 499.949C162.54 499.648 162.173 499.398 161.702 499.199C161.236 498.994 160.69 498.812 160.065 498.653L158.08 498.142C156.642 497.773 155.506 497.213 154.67 496.463C153.841 495.707 153.426 494.705 153.426 493.455C153.426 492.426 153.705 491.526 154.261 490.753C154.824 489.98 155.588 489.381 156.554 488.955C157.52 488.523 158.614 488.307 159.835 488.307C161.074 488.307 162.159 488.523 163.091 488.955C164.028 489.381 164.764 489.974 165.298 490.736C165.832 491.491 166.108 492.361 166.125 493.344H163.082ZM184.123 494.435H180.935C180.844 493.912 180.677 493.449 180.433 493.045C180.188 492.636 179.884 492.29 179.521 492.006C179.157 491.722 178.742 491.509 178.276 491.366C177.816 491.219 177.319 491.145 176.785 491.145C175.836 491.145 174.995 491.384 174.262 491.861C173.529 492.332 172.955 493.026 172.54 493.94C172.126 494.849 171.918 495.96 171.918 497.273C171.918 498.608 172.126 499.733 172.54 500.648C172.961 501.557 173.535 502.244 174.262 502.71C174.995 503.17 175.833 503.401 176.776 503.401C177.299 503.401 177.788 503.332 178.242 503.196C178.702 503.054 179.114 502.847 179.478 502.574C179.847 502.301 180.157 501.966 180.407 501.568C180.663 501.17 180.839 500.716 180.935 500.205L184.123 500.222C184.004 501.051 183.745 501.83 183.347 502.557C182.955 503.284 182.441 503.926 181.805 504.483C181.168 505.034 180.424 505.466 179.572 505.778C178.719 506.085 177.773 506.239 176.734 506.239C175.2 506.239 173.83 505.884 172.626 505.173C171.421 504.463 170.472 503.438 169.779 502.097C169.086 500.756 168.739 499.148 168.739 497.273C168.739 495.392 169.089 493.784 169.788 492.449C170.487 491.108 171.438 490.082 172.643 489.372C173.847 488.662 175.211 488.307 176.734 488.307C177.705 488.307 178.609 488.443 179.444 488.716C180.279 488.989 181.023 489.389 181.677 489.918C182.33 490.44 182.867 491.082 183.288 491.844C183.714 492.599 183.992 493.463 184.123 494.435ZM188.783 503.903C188.266 503.903 187.822 503.722 187.453 503.358C187.084 502.989 186.902 502.545 186.908 502.028C186.902 501.517 187.084 501.08 187.453 500.716C187.822 500.352 188.266 500.17 188.783 500.17C189.283 500.17 189.717 500.352 190.087 500.716C190.462 501.08 190.652 501.517 190.658 502.028C190.652 502.375 190.561 502.69 190.385 502.974C190.214 503.259 189.987 503.486 189.703 503.656C189.425 503.821 189.118 503.903 188.783 503.903ZM188.783 495.253C188.266 495.253 187.822 495.071 187.453 494.707C187.084 494.338 186.902 493.895 186.908 493.378C186.902 492.866 187.084 492.429 187.453 492.065C187.822 491.696 188.266 491.511 188.783 491.511C189.283 491.511 189.717 491.696 190.087 492.065C190.462 492.429 190.652 492.866 190.658 493.378C190.652 493.719 190.561 494.031 190.385 494.315C190.214 494.599 189.987 494.827 189.703 494.997C189.425 495.168 189.118 495.253 188.783 495.253ZM200.018 506V504.466L205.779 498.159C206.455 497.42 207.012 496.778 207.45 496.233C207.887 495.682 208.211 495.165 208.421 494.682C208.637 494.193 208.745 493.682 208.745 493.148C208.745 492.534 208.597 492.003 208.302 491.554C208.012 491.105 207.614 490.759 207.109 490.514C206.603 490.27 206.035 490.148 205.404 490.148C204.734 490.148 204.148 490.287 203.648 490.565C203.154 490.838 202.771 491.222 202.498 491.716C202.231 492.21 202.097 492.79 202.097 493.455H200.086C200.086 492.432 200.322 491.534 200.793 490.761C201.265 489.989 201.907 489.386 202.719 488.955C203.538 488.523 204.455 488.307 205.472 488.307C206.495 488.307 207.401 488.523 208.191 488.955C208.981 489.386 209.6 489.969 210.049 490.702C210.498 491.435 210.722 492.25 210.722 493.148C210.722 493.79 210.606 494.418 210.373 495.031C210.146 495.639 209.748 496.318 209.18 497.068C208.617 497.812 207.836 498.722 206.836 499.795L202.915 503.989V504.125H211.029V506H200.018ZM220.242 506.239C218.958 506.239 217.864 505.889 216.961 505.19C216.058 504.486 215.367 503.466 214.89 502.131C214.413 500.79 214.174 499.17 214.174 497.273C214.174 495.386 214.413 493.776 214.89 492.44C215.373 491.099 216.066 490.077 216.969 489.372C217.879 488.662 218.969 488.307 220.242 488.307C221.515 488.307 222.603 488.662 223.506 489.372C224.415 490.077 225.109 491.099 225.586 492.44C226.069 493.776 226.31 495.386 226.31 497.273C226.31 499.17 226.072 500.79 225.594 502.131C225.117 503.466 224.427 504.486 223.523 505.19C222.62 505.889 221.526 506.239 220.242 506.239ZM220.242 504.364C221.515 504.364 222.504 503.75 223.208 502.523C223.913 501.295 224.265 499.545 224.265 497.273C224.265 495.761 224.103 494.474 223.779 493.412C223.461 492.349 223.001 491.54 222.398 490.983C221.802 490.426 221.083 490.148 220.242 490.148C218.981 490.148 217.995 490.77 217.285 492.014C216.575 493.253 216.219 495.006 216.219 497.273C216.219 498.784 216.379 500.068 216.697 501.125C217.015 502.182 217.472 502.986 218.069 503.537C218.671 504.088 219.396 504.364 220.242 504.364ZM235.754 487.727L230.129 508.625H228.288L233.913 487.727H235.754ZM243.797 506.239C242.513 506.239 241.419 505.889 240.516 505.19C239.612 504.486 238.922 503.466 238.445 502.131C237.967 500.79 237.729 499.17 237.729 497.273C237.729 495.386 237.967 493.776 238.445 492.44C238.928 491.099 239.621 490.077 240.524 489.372C241.433 488.662 242.524 488.307 243.797 488.307C245.07 488.307 246.158 488.662 247.061 489.372C247.97 490.077 248.663 491.099 249.141 492.44C249.624 493.776 249.865 495.386 249.865 497.273C249.865 499.17 249.626 500.79 249.149 502.131C248.672 503.466 247.982 504.486 247.078 505.19C246.175 505.889 245.081 506.239 243.797 506.239ZM243.797 504.364C245.07 504.364 246.058 503.75 246.763 502.523C247.467 501.295 247.82 499.545 247.82 497.273C247.82 495.761 247.658 494.474 247.334 493.412C247.016 492.349 246.555 491.54 245.953 490.983C245.357 490.426 244.638 490.148 243.797 490.148C242.536 490.148 241.55 490.77 240.839 492.014C240.129 493.253 239.774 495.006 239.774 497.273C239.774 498.784 239.933 500.068 240.251 501.125C240.57 502.182 241.027 502.986 241.624 503.537C242.226 504.088 242.95 504.364 243.797 504.364ZM252.695 502.42V500.682L260.365 488.545H261.626V491.239H260.774L254.979 500.409V500.545H265.308V502.42H252.695ZM260.911 506V501.892V501.082V488.545H262.922V506H260.911ZM274.707 487.727L269.082 508.625H267.241L272.866 487.727H274.707ZM277.057 506V504.466L282.818 498.159C283.494 497.42 284.051 496.778 284.489 496.233C284.926 495.682 285.25 495.165 285.46 494.682C285.676 494.193 285.784 493.682 285.784 493.148C285.784 492.534 285.636 492.003 285.341 491.554C285.051 491.105 284.653 490.759 284.148 490.514C283.642 490.27 283.074 490.148 282.443 490.148C281.773 490.148 281.188 490.287 280.688 490.565C280.193 490.838 279.81 491.222 279.537 491.716C279.27 492.21 279.136 492.79 279.136 493.455H277.125C277.125 492.432 277.361 491.534 277.832 490.761C278.304 489.989 278.946 489.386 279.759 488.955C280.577 488.523 281.494 488.307 282.511 488.307C283.534 488.307 284.44 488.523 285.23 488.955C286.02 489.386 286.639 489.969 287.088 490.702C287.537 491.435 287.761 492.25 287.761 493.148C287.761 493.79 287.645 494.418 287.412 495.031C287.185 495.639 286.787 496.318 286.219 497.068C285.656 497.812 284.875 498.722 283.875 499.795L279.955 503.989V504.125H288.068V506H277.057ZM297.281 506.239C295.997 506.239 294.903 505.889 294 505.19C293.097 504.486 292.406 503.466 291.929 502.131C291.452 500.79 291.213 499.17 291.213 497.273C291.213 495.386 291.452 493.776 291.929 492.44C292.412 491.099 293.105 490.077 294.009 489.372C294.918 488.662 296.009 488.307 297.281 488.307C298.554 488.307 299.642 488.662 300.545 489.372C301.455 490.077 302.148 491.099 302.625 492.44C303.108 493.776 303.349 495.386 303.349 497.273C303.349 499.17 303.111 500.79 302.634 502.131C302.156 503.466 301.466 504.486 300.562 505.19C299.659 505.889 298.565 506.239 297.281 506.239ZM297.281 504.364C298.554 504.364 299.543 503.75 300.247 502.523C300.952 501.295 301.304 499.545 301.304 497.273C301.304 495.761 301.142 494.474 300.818 493.412C300.5 492.349 300.04 491.54 299.438 490.983C298.841 490.426 298.122 490.148 297.281 490.148C296.02 490.148 295.034 490.77 294.324 492.014C293.614 493.253 293.259 495.006 293.259 497.273C293.259 498.784 293.418 500.068 293.736 501.125C294.054 502.182 294.511 502.986 295.108 503.537C295.71 504.088 296.435 504.364 297.281 504.364ZM312.281 506.239C310.997 506.239 309.903 505.889 309 505.19C308.097 504.486 307.406 503.466 306.929 502.131C306.452 500.79 306.213 499.17 306.213 497.273C306.213 495.386 306.452 493.776 306.929 492.44C307.412 491.099 308.105 490.077 309.009 489.372C309.918 488.662 311.009 488.307 312.281 488.307C313.554 488.307 314.642 488.662 315.545 489.372C316.455 490.077 317.148 491.099 317.625 492.44C318.108 493.776 318.349 495.386 318.349 497.273C318.349 499.17 318.111 500.79 317.634 502.131C317.156 503.466 316.466 504.486 315.562 505.19C314.659 505.889 313.565 506.239 312.281 506.239ZM312.281 504.364C313.554 504.364 314.543 503.75 315.247 502.523C315.952 501.295 316.304 499.545 316.304 497.273C316.304 495.761 316.142 494.474 315.818 493.412C315.5 492.349 315.04 491.54 314.438 490.983C313.841 490.426 313.122 490.148 312.281 490.148C311.02 490.148 310.034 490.77 309.324 492.014C308.614 493.253 308.259 495.006 308.259 497.273C308.259 498.784 308.418 500.068 308.736 501.125C309.054 502.182 309.511 502.986 310.108 503.537C310.71 504.088 311.435 504.364 312.281 504.364ZM327.281 506.239C325.997 506.239 324.903 505.889 324 505.19C323.097 504.486 322.406 503.466 321.929 502.131C321.452 500.79 321.213 499.17 321.213 497.273C321.213 495.386 321.452 493.776 321.929 492.44C322.412 491.099 323.105 490.077 324.009 489.372C324.918 488.662 326.009 488.307 327.281 488.307C328.554 488.307 329.642 488.662 330.545 489.372C331.455 490.077 332.148 491.099 332.625 492.44C333.108 493.776 333.349 495.386 333.349 497.273C333.349 499.17 333.111 500.79 332.634 502.131C332.156 503.466 331.466 504.486 330.562 505.19C329.659 505.889 328.565 506.239 327.281 506.239ZM327.281 504.364C328.554 504.364 329.543 503.75 330.247 502.523C330.952 501.295 331.304 499.545 331.304 497.273C331.304 495.761 331.142 494.474 330.818 493.412C330.5 492.349 330.04 491.54 329.438 490.983C328.841 490.426 328.122 490.148 327.281 490.148C326.02 490.148 325.034 490.77 324.324 492.014C323.614 493.253 323.259 495.006 323.259 497.273C323.259 498.784 323.418 500.068 323.736 501.125C324.054 502.182 324.511 502.986 325.108 503.537C325.71 504.088 326.435 504.364 327.281 504.364Z" fill="white"/>
<rect x="103" y="655" width="273" height="246" rx="10" fill="white"/>
</g>
<defs>
<filter id="filter0_d_24_2" x="-101.326" y="268.636" width="591.314" height="714.113" filterUnits="userSpaceOnUse" color-interpolation-filters="sRGB">
<feFlood flood-opacity="0" result="BackgroundImageFix"/>
<feColorMatrix in="SourceAlpha" type="matrix" values="0 0 0 0 0 0 0 0 0 0 0 0 0 0 0 0 0 0 127 0" result="hardAlpha"/>
<feOffset dy="-4"/>
<feGaussianBlur stdDeviation="2"/>
<feComposite in2="hardAlpha" operator="out"/>
<feColorMatrix type="matrix" values="0 0 0 0 0 0 0 0 0 0 0 0 0 0 0 0 0 0 0.25 0"/>
<feBlend mode="normal" in2="BackgroundImageFix" result="effect1_dropShadow_24_2"/>
<feBlend mode="normal" in="SourceGraphic" in2="effect1_dropShadow_24_2" result="shape"/>
</filter>
<linearGradient id="paint0_linear_24_2" x1="240" y1="-0.372742" x2="240" y2="981.627" gradientUnits="userSpaceOnUse">
<stop stop-color="#363062"/>
<stop offset="1" stop-color="#4D4C7D"/>
</linearGradient>
<linearGradient id="paint1_linear_24_2" x1="254.534" y1="925" x2="385.179" y2="978.309" gradientUnits="userSpaceOnUse">
<stop stop-color="#363062"/>
<stop offset="0.943062" stop-color="#4D4C7D"/>
</linearGradient>
<clipPath id="clip0_24_2">
<rect width="480" height="982" rx="10" fill="white"/>
</clipPath>
</defs>
</svg>
